<?xml version="1.0" encoding="utf-8" standalone="no"?>
<!DOCTYPE svg PUBLIC "-//W3C//DTD SVG 1.1//EN"
  "http://www.w3.org/Graphics/SVG/1.1/DTD/svg11.dtd">
<!-- Created with matplotlib (https://matplotlib.org/) -->
<svg height="345.6pt" version="1.1" viewBox="0 0 460.8 345.6" width="460.8pt" xmlns="http://www.w3.org/2000/svg" xmlns:xlink="http://www.w3.org/1999/xlink">
 <metadata>
  <rdf:RDF xmlns:cc="http://creativecommons.org/ns#" xmlns:dc="http://purl.org/dc/elements/1.1/" xmlns:rdf="http://www.w3.org/1999/02/22-rdf-syntax-ns#">
   <cc:Work>
    <dc:type rdf:resource="http://purl.org/dc/dcmitype/StillImage"/>
    <dc:date>2021-03-29T08:27:53.956490</dc:date>
    <dc:format>image/svg+xml</dc:format>
    <dc:creator>
     <cc:Agent>
      <dc:title>Matplotlib v3.3.3, https://matplotlib.org/</dc:title>
     </cc:Agent>
    </dc:creator>
   </cc:Work>
  </rdf:RDF>
 </metadata>
 <defs>
  <style type="text/css">*{stroke-linecap:butt;stroke-linejoin:round;}</style>
 </defs>
 <g id="figure_1">
  <g id="patch_1">
   <path d="M 0 345.6 
L 460.8 345.6 
L 460.8 0 
L 0 0 
z
" style="fill:#ffffff;"/>
  </g>
  <g id="axes_1">
   <g id="patch_2">
    <path d="M 57.6 276.48 
L 414.72 276.48 
L 414.72 41.472 
L 57.6 41.472 
z
" style="fill:#ffffff;"/>
   </g>
   <g id="matplotlib.axis_1">
    <g id="xtick_1">
     <g id="line2d_1">
      <defs>
       <path d="M 0 0 
L 0 3.5 
" id="m025cb4228a" style="stroke:#000000;stroke-width:0.8;"/>
      </defs>
      <g>
       <use style="stroke:#000000;stroke-width:0.8;" x="73.832727" xlink:href="#m025cb4228a" y="276.48"/>
      </g>
     </g>
     <g id="text_1">
      <!-- 2021-03-15 19:29:52.040080 -->
      <g transform="translate(-54.997284 363.840127)rotate(-30)scale(0.1 -0.1)">
       <defs>
        <path d="M 19.1875 8.296875 
L 53.609375 8.296875 
L 53.609375 0 
L 7.328125 0 
L 7.328125 8.296875 
Q 12.9375 14.109375 22.625 23.890625 
Q 32.328125 33.6875 34.8125 36.53125 
Q 39.546875 41.84375 41.421875 45.53125 
Q 43.3125 49.21875 43.3125 52.78125 
Q 43.3125 58.59375 39.234375 62.25 
Q 35.15625 65.921875 28.609375 65.921875 
Q 23.96875 65.921875 18.8125 64.3125 
Q 13.671875 62.703125 7.8125 59.421875 
L 7.8125 69.390625 
Q 13.765625 71.78125 18.9375 73 
Q 24.125 74.21875 28.421875 74.21875 
Q 39.75 74.21875 46.484375 68.546875 
Q 53.21875 62.890625 53.21875 53.421875 
Q 53.21875 48.921875 51.53125 44.890625 
Q 49.859375 40.875 45.40625 35.40625 
Q 44.1875 33.984375 37.640625 27.21875 
Q 31.109375 20.453125 19.1875 8.296875 
z
" id="DejaVuSans-50"/>
        <path d="M 31.78125 66.40625 
Q 24.171875 66.40625 20.328125 58.90625 
Q 16.5 51.421875 16.5 36.375 
Q 16.5 21.390625 20.328125 13.890625 
Q 24.171875 6.390625 31.78125 6.390625 
Q 39.453125 6.390625 43.28125 13.890625 
Q 47.125 21.390625 47.125 36.375 
Q 47.125 51.421875 43.28125 58.90625 
Q 39.453125 66.40625 31.78125 66.40625 
z
M 31.78125 74.21875 
Q 44.046875 74.21875 50.515625 64.515625 
Q 56.984375 54.828125 56.984375 36.375 
Q 56.984375 17.96875 50.515625 8.265625 
Q 44.046875 -1.421875 31.78125 -1.421875 
Q 19.53125 -1.421875 13.0625 8.265625 
Q 6.59375 17.96875 6.59375 36.375 
Q 6.59375 54.828125 13.0625 64.515625 
Q 19.53125 74.21875 31.78125 74.21875 
z
" id="DejaVuSans-48"/>
        <path d="M 12.40625 8.296875 
L 28.515625 8.296875 
L 28.515625 63.921875 
L 10.984375 60.40625 
L 10.984375 69.390625 
L 28.421875 72.90625 
L 38.28125 72.90625 
L 38.28125 8.296875 
L 54.390625 8.296875 
L 54.390625 0 
L 12.40625 0 
z
" id="DejaVuSans-49"/>
        <path d="M 4.890625 31.390625 
L 31.203125 31.390625 
L 31.203125 23.390625 
L 4.890625 23.390625 
z
" id="DejaVuSans-45"/>
        <path d="M 40.578125 39.3125 
Q 47.65625 37.796875 51.625 33 
Q 55.609375 28.21875 55.609375 21.1875 
Q 55.609375 10.40625 48.1875 4.484375 
Q 40.765625 -1.421875 27.09375 -1.421875 
Q 22.515625 -1.421875 17.65625 -0.515625 
Q 12.796875 0.390625 7.625 2.203125 
L 7.625 11.71875 
Q 11.71875 9.328125 16.59375 8.109375 
Q 21.484375 6.890625 26.8125 6.890625 
Q 36.078125 6.890625 40.9375 10.546875 
Q 45.796875 14.203125 45.796875 21.1875 
Q 45.796875 27.640625 41.28125 31.265625 
Q 36.765625 34.90625 28.71875 34.90625 
L 20.21875 34.90625 
L 20.21875 43.015625 
L 29.109375 43.015625 
Q 36.375 43.015625 40.234375 45.921875 
Q 44.09375 48.828125 44.09375 54.296875 
Q 44.09375 59.90625 40.109375 62.90625 
Q 36.140625 65.921875 28.71875 65.921875 
Q 24.65625 65.921875 20.015625 65.03125 
Q 15.375 64.15625 9.8125 62.3125 
L 9.8125 71.09375 
Q 15.4375 72.65625 20.34375 73.4375 
Q 25.25 74.21875 29.59375 74.21875 
Q 40.828125 74.21875 47.359375 69.109375 
Q 53.90625 64.015625 53.90625 55.328125 
Q 53.90625 49.265625 50.4375 45.09375 
Q 46.96875 40.921875 40.578125 39.3125 
z
" id="DejaVuSans-51"/>
        <path d="M 10.796875 72.90625 
L 49.515625 72.90625 
L 49.515625 64.59375 
L 19.828125 64.59375 
L 19.828125 46.734375 
Q 21.96875 47.46875 24.109375 47.828125 
Q 26.265625 48.1875 28.421875 48.1875 
Q 40.625 48.1875 47.75 41.5 
Q 54.890625 34.8125 54.890625 23.390625 
Q 54.890625 11.625 47.5625 5.09375 
Q 40.234375 -1.421875 26.90625 -1.421875 
Q 22.3125 -1.421875 17.546875 -0.640625 
Q 12.796875 0.140625 7.71875 1.703125 
L 7.71875 11.625 
Q 12.109375 9.234375 16.796875 8.0625 
Q 21.484375 6.890625 26.703125 6.890625 
Q 35.15625 6.890625 40.078125 11.328125 
Q 45.015625 15.765625 45.015625 23.390625 
Q 45.015625 31 40.078125 35.4375 
Q 35.15625 39.890625 26.703125 39.890625 
Q 22.75 39.890625 18.8125 39.015625 
Q 14.890625 38.140625 10.796875 36.28125 
z
" id="DejaVuSans-53"/>
        <path id="DejaVuSans-32"/>
        <path d="M 10.984375 1.515625 
L 10.984375 10.5 
Q 14.703125 8.734375 18.5 7.8125 
Q 22.3125 6.890625 25.984375 6.890625 
Q 35.75 6.890625 40.890625 13.453125 
Q 46.046875 20.015625 46.78125 33.40625 
Q 43.953125 29.203125 39.59375 26.953125 
Q 35.25 24.703125 29.984375 24.703125 
Q 19.046875 24.703125 12.671875 31.3125 
Q 6.296875 37.9375 6.296875 49.421875 
Q 6.296875 60.640625 12.9375 67.421875 
Q 19.578125 74.21875 30.609375 74.21875 
Q 43.265625 74.21875 49.921875 64.515625 
Q 56.59375 54.828125 56.59375 36.375 
Q 56.59375 19.140625 48.40625 8.859375 
Q 40.234375 -1.421875 26.421875 -1.421875 
Q 22.703125 -1.421875 18.890625 -0.6875 
Q 15.09375 0.046875 10.984375 1.515625 
z
M 30.609375 32.421875 
Q 37.25 32.421875 41.125 36.953125 
Q 45.015625 41.5 45.015625 49.421875 
Q 45.015625 57.28125 41.125 61.84375 
Q 37.25 66.40625 30.609375 66.40625 
Q 23.96875 66.40625 20.09375 61.84375 
Q 16.21875 57.28125 16.21875 49.421875 
Q 16.21875 41.5 20.09375 36.953125 
Q 23.96875 32.421875 30.609375 32.421875 
z
" id="DejaVuSans-57"/>
        <path d="M 11.71875 12.40625 
L 22.015625 12.40625 
L 22.015625 0 
L 11.71875 0 
z
M 11.71875 51.703125 
L 22.015625 51.703125 
L 22.015625 39.3125 
L 11.71875 39.3125 
z
" id="DejaVuSans-58"/>
        <path d="M 10.6875 12.40625 
L 21 12.40625 
L 21 0 
L 10.6875 0 
z
" id="DejaVuSans-46"/>
        <path d="M 37.796875 64.3125 
L 12.890625 25.390625 
L 37.796875 25.390625 
z
M 35.203125 72.90625 
L 47.609375 72.90625 
L 47.609375 25.390625 
L 58.015625 25.390625 
L 58.015625 17.1875 
L 47.609375 17.1875 
L 47.609375 0 
L 37.796875 0 
L 37.796875 17.1875 
L 4.890625 17.1875 
L 4.890625 26.703125 
z
" id="DejaVuSans-52"/>
        <path d="M 31.78125 34.625 
Q 24.75 34.625 20.71875 30.859375 
Q 16.703125 27.09375 16.703125 20.515625 
Q 16.703125 13.921875 20.71875 10.15625 
Q 24.75 6.390625 31.78125 6.390625 
Q 38.8125 6.390625 42.859375 10.171875 
Q 46.921875 13.96875 46.921875 20.515625 
Q 46.921875 27.09375 42.890625 30.859375 
Q 38.875 34.625 31.78125 34.625 
z
M 21.921875 38.8125 
Q 15.578125 40.375 12.03125 44.71875 
Q 8.5 49.078125 8.5 55.328125 
Q 8.5 64.0625 14.71875 69.140625 
Q 20.953125 74.21875 31.78125 74.21875 
Q 42.671875 74.21875 48.875 69.140625 
Q 55.078125 64.0625 55.078125 55.328125 
Q 55.078125 49.078125 51.53125 44.71875 
Q 48 40.375 41.703125 38.8125 
Q 48.828125 37.15625 52.796875 32.3125 
Q 56.78125 27.484375 56.78125 20.515625 
Q 56.78125 9.90625 50.3125 4.234375 
Q 43.84375 -1.421875 31.78125 -1.421875 
Q 19.734375 -1.421875 13.25 4.234375 
Q 6.78125 9.90625 6.78125 20.515625 
Q 6.78125 27.484375 10.78125 32.3125 
Q 14.796875 37.15625 21.921875 38.8125 
z
M 18.3125 54.390625 
Q 18.3125 48.734375 21.84375 45.5625 
Q 25.390625 42.390625 31.78125 42.390625 
Q 38.140625 42.390625 41.71875 45.5625 
Q 45.3125 48.734375 45.3125 54.390625 
Q 45.3125 60.0625 41.71875 63.234375 
Q 38.140625 66.40625 31.78125 66.40625 
Q 25.390625 66.40625 21.84375 63.234375 
Q 18.3125 60.0625 18.3125 54.390625 
z
" id="DejaVuSans-56"/>
       </defs>
       <use xlink:href="#DejaVuSans-50"/>
       <use x="63.623047" xlink:href="#DejaVuSans-48"/>
       <use x="127.246094" xlink:href="#DejaVuSans-50"/>
       <use x="190.869141" xlink:href="#DejaVuSans-49"/>
       <use x="254.492188" xlink:href="#DejaVuSans-45"/>
       <use x="290.576172" xlink:href="#DejaVuSans-48"/>
       <use x="354.199219" xlink:href="#DejaVuSans-51"/>
       <use x="417.822266" xlink:href="#DejaVuSans-45"/>
       <use x="453.90625" xlink:href="#DejaVuSans-49"/>
       <use x="517.529297" xlink:href="#DejaVuSans-53"/>
       <use x="581.152344" xlink:href="#DejaVuSans-32"/>
       <use x="612.939453" xlink:href="#DejaVuSans-49"/>
       <use x="676.5625" xlink:href="#DejaVuSans-57"/>
       <use x="740.185547" xlink:href="#DejaVuSans-58"/>
       <use x="773.876953" xlink:href="#DejaVuSans-50"/>
       <use x="837.5" xlink:href="#DejaVuSans-57"/>
       <use x="901.123047" xlink:href="#DejaVuSans-58"/>
       <use x="934.814453" xlink:href="#DejaVuSans-53"/>
       <use x="998.4375" xlink:href="#DejaVuSans-50"/>
       <use x="1062.060547" xlink:href="#DejaVuSans-46"/>
       <use x="1093.847656" xlink:href="#DejaVuSans-48"/>
       <use x="1157.470703" xlink:href="#DejaVuSans-52"/>
       <use x="1221.09375" xlink:href="#DejaVuSans-48"/>
       <use x="1284.716797" xlink:href="#DejaVuSans-48"/>
       <use x="1348.339844" xlink:href="#DejaVuSans-56"/>
       <use x="1411.962891" xlink:href="#DejaVuSans-48"/>
      </g>
     </g>
    </g>
    <g id="xtick_2">
     <g id="line2d_2">
      <g>
       <use style="stroke:#000000;stroke-width:0.8;" x="122.579656" xlink:href="#m025cb4228a" y="276.48"/>
      </g>
     </g>
     <g id="text_2">
      <!-- 2021-03-18 08:33:53.213398 -->
      <g transform="translate(-6.250355 363.840127)rotate(-30)scale(0.1 -0.1)">
       <use xlink:href="#DejaVuSans-50"/>
       <use x="63.623047" xlink:href="#DejaVuSans-48"/>
       <use x="127.246094" xlink:href="#DejaVuSans-50"/>
       <use x="190.869141" xlink:href="#DejaVuSans-49"/>
       <use x="254.492188" xlink:href="#DejaVuSans-45"/>
       <use x="290.576172" xlink:href="#DejaVuSans-48"/>
       <use x="354.199219" xlink:href="#DejaVuSans-51"/>
       <use x="417.822266" xlink:href="#DejaVuSans-45"/>
       <use x="453.90625" xlink:href="#DejaVuSans-49"/>
       <use x="517.529297" xlink:href="#DejaVuSans-56"/>
       <use x="581.152344" xlink:href="#DejaVuSans-32"/>
       <use x="612.939453" xlink:href="#DejaVuSans-48"/>
       <use x="676.5625" xlink:href="#DejaVuSans-56"/>
       <use x="740.185547" xlink:href="#DejaVuSans-58"/>
       <use x="773.876953" xlink:href="#DejaVuSans-51"/>
       <use x="837.5" xlink:href="#DejaVuSans-51"/>
       <use x="901.123047" xlink:href="#DejaVuSans-58"/>
       <use x="934.814453" xlink:href="#DejaVuSans-53"/>
       <use x="998.4375" xlink:href="#DejaVuSans-51"/>
       <use x="1062.060547" xlink:href="#DejaVuSans-46"/>
       <use x="1093.847656" xlink:href="#DejaVuSans-50"/>
       <use x="1157.470703" xlink:href="#DejaVuSans-49"/>
       <use x="1221.09375" xlink:href="#DejaVuSans-51"/>
       <use x="1284.716797" xlink:href="#DejaVuSans-51"/>
       <use x="1348.339844" xlink:href="#DejaVuSans-57"/>
       <use x="1411.962891" xlink:href="#DejaVuSans-56"/>
      </g>
     </g>
    </g>
    <g id="xtick_3">
     <g id="line2d_3">
      <g>
       <use style="stroke:#000000;stroke-width:0.8;" x="171.326585" xlink:href="#m025cb4228a" y="276.48"/>
      </g>
     </g>
     <g id="text_3">
      <!-- 2021-03-20 19:44:29.384091 -->
      <g transform="translate(42.496574 363.840127)rotate(-30)scale(0.1 -0.1)">
       <use xlink:href="#DejaVuSans-50"/>
       <use x="63.623047" xlink:href="#DejaVuSans-48"/>
       <use x="127.246094" xlink:href="#DejaVuSans-50"/>
       <use x="190.869141" xlink:href="#DejaVuSans-49"/>
       <use x="254.492188" xlink:href="#DejaVuSans-45"/>
       <use x="290.576172" xlink:href="#DejaVuSans-48"/>
       <use x="354.199219" xlink:href="#DejaVuSans-51"/>
       <use x="417.822266" xlink:href="#DejaVuSans-45"/>
       <use x="453.90625" xlink:href="#DejaVuSans-50"/>
       <use x="517.529297" xlink:href="#DejaVuSans-48"/>
       <use x="581.152344" xlink:href="#DejaVuSans-32"/>
       <use x="612.939453" xlink:href="#DejaVuSans-49"/>
       <use x="676.5625" xlink:href="#DejaVuSans-57"/>
       <use x="740.185547" xlink:href="#DejaVuSans-58"/>
       <use x="773.876953" xlink:href="#DejaVuSans-52"/>
       <use x="837.5" xlink:href="#DejaVuSans-52"/>
       <use x="901.123047" xlink:href="#DejaVuSans-58"/>
       <use x="934.814453" xlink:href="#DejaVuSans-50"/>
       <use x="998.4375" xlink:href="#DejaVuSans-57"/>
       <use x="1062.060547" xlink:href="#DejaVuSans-46"/>
       <use x="1093.847656" xlink:href="#DejaVuSans-51"/>
       <use x="1157.470703" xlink:href="#DejaVuSans-56"/>
       <use x="1221.09375" xlink:href="#DejaVuSans-52"/>
       <use x="1284.716797" xlink:href="#DejaVuSans-48"/>
       <use x="1348.339844" xlink:href="#DejaVuSans-57"/>
       <use x="1411.962891" xlink:href="#DejaVuSans-49"/>
      </g>
     </g>
    </g>
    <g id="xtick_4">
     <g id="line2d_4">
      <g>
       <use style="stroke:#000000;stroke-width:0.8;" x="220.073514" xlink:href="#m025cb4228a" y="276.48"/>
      </g>
     </g>
     <g id="text_4">
      <!-- 2021-03-23 08:55:19.667255 -->
      <g transform="translate(91.243502 363.840127)rotate(-30)scale(0.1 -0.1)">
       <defs>
        <path d="M 33.015625 40.375 
Q 26.375 40.375 22.484375 35.828125 
Q 18.609375 31.296875 18.609375 23.390625 
Q 18.609375 15.53125 22.484375 10.953125 
Q 26.375 6.390625 33.015625 6.390625 
Q 39.65625 6.390625 43.53125 10.953125 
Q 47.40625 15.53125 47.40625 23.390625 
Q 47.40625 31.296875 43.53125 35.828125 
Q 39.65625 40.375 33.015625 40.375 
z
M 52.59375 71.296875 
L 52.59375 62.3125 
Q 48.875 64.0625 45.09375 64.984375 
Q 41.3125 65.921875 37.59375 65.921875 
Q 27.828125 65.921875 22.671875 59.328125 
Q 17.53125 52.734375 16.796875 39.40625 
Q 19.671875 43.65625 24.015625 45.921875 
Q 28.375 48.1875 33.59375 48.1875 
Q 44.578125 48.1875 50.953125 41.515625 
Q 57.328125 34.859375 57.328125 23.390625 
Q 57.328125 12.15625 50.6875 5.359375 
Q 44.046875 -1.421875 33.015625 -1.421875 
Q 20.359375 -1.421875 13.671875 8.265625 
Q 6.984375 17.96875 6.984375 36.375 
Q 6.984375 53.65625 15.1875 63.9375 
Q 23.390625 74.21875 37.203125 74.21875 
Q 40.921875 74.21875 44.703125 73.484375 
Q 48.484375 72.75 52.59375 71.296875 
z
" id="DejaVuSans-54"/>
        <path d="M 8.203125 72.90625 
L 55.078125 72.90625 
L 55.078125 68.703125 
L 28.609375 0 
L 18.3125 0 
L 43.21875 64.59375 
L 8.203125 64.59375 
z
" id="DejaVuSans-55"/>
       </defs>
       <use xlink:href="#DejaVuSans-50"/>
       <use x="63.623047" xlink:href="#DejaVuSans-48"/>
       <use x="127.246094" xlink:href="#DejaVuSans-50"/>
       <use x="190.869141" xlink:href="#DejaVuSans-49"/>
       <use x="254.492188" xlink:href="#DejaVuSans-45"/>
       <use x="290.576172" xlink:href="#DejaVuSans-48"/>
       <use x="354.199219" xlink:href="#DejaVuSans-51"/>
       <use x="417.822266" xlink:href="#DejaVuSans-45"/>
       <use x="453.90625" xlink:href="#DejaVuSans-50"/>
       <use x="517.529297" xlink:href="#DejaVuSans-51"/>
       <use x="581.152344" xlink:href="#DejaVuSans-32"/>
       <use x="612.939453" xlink:href="#DejaVuSans-48"/>
       <use x="676.5625" xlink:href="#DejaVuSans-56"/>
       <use x="740.185547" xlink:href="#DejaVuSans-58"/>
       <use x="773.876953" xlink:href="#DejaVuSans-53"/>
       <use x="837.5" xlink:href="#DejaVuSans-53"/>
       <use x="901.123047" xlink:href="#DejaVuSans-58"/>
       <use x="934.814453" xlink:href="#DejaVuSans-49"/>
       <use x="998.4375" xlink:href="#DejaVuSans-57"/>
       <use x="1062.060547" xlink:href="#DejaVuSans-46"/>
       <use x="1093.847656" xlink:href="#DejaVuSans-54"/>
       <use x="1157.470703" xlink:href="#DejaVuSans-54"/>
       <use x="1221.09375" xlink:href="#DejaVuSans-55"/>
       <use x="1284.716797" xlink:href="#DejaVuSans-50"/>
       <use x="1348.339844" xlink:href="#DejaVuSans-53"/>
       <use x="1411.962891" xlink:href="#DejaVuSans-53"/>
      </g>
     </g>
    </g>
    <g id="xtick_5">
     <g id="line2d_5">
      <g>
       <use style="stroke:#000000;stroke-width:0.8;" x="268.820442" xlink:href="#m025cb4228a" y="276.48"/>
      </g>
     </g>
     <g id="text_5">
      <!-- 2021-03-25 00:50:18.400087 -->
      <g transform="translate(139.990431 363.840127)rotate(-30)scale(0.1 -0.1)">
       <use xlink:href="#DejaVuSans-50"/>
       <use x="63.623047" xlink:href="#DejaVuSans-48"/>
       <use x="127.246094" xlink:href="#DejaVuSans-50"/>
       <use x="190.869141" xlink:href="#DejaVuSans-49"/>
       <use x="254.492188" xlink:href="#DejaVuSans-45"/>
       <use x="290.576172" xlink:href="#DejaVuSans-48"/>
       <use x="354.199219" xlink:href="#DejaVuSans-51"/>
       <use x="417.822266" xlink:href="#DejaVuSans-45"/>
       <use x="453.90625" xlink:href="#DejaVuSans-50"/>
       <use x="517.529297" xlink:href="#DejaVuSans-53"/>
       <use x="581.152344" xlink:href="#DejaVuSans-32"/>
       <use x="612.939453" xlink:href="#DejaVuSans-48"/>
       <use x="676.5625" xlink:href="#DejaVuSans-48"/>
       <use x="740.185547" xlink:href="#DejaVuSans-58"/>
       <use x="773.876953" xlink:href="#DejaVuSans-53"/>
       <use x="837.5" xlink:href="#DejaVuSans-48"/>
       <use x="901.123047" xlink:href="#DejaVuSans-58"/>
       <use x="934.814453" xlink:href="#DejaVuSans-49"/>
       <use x="998.4375" xlink:href="#DejaVuSans-56"/>
       <use x="1062.060547" xlink:href="#DejaVuSans-46"/>
       <use x="1093.847656" xlink:href="#DejaVuSans-52"/>
       <use x="1157.470703" xlink:href="#DejaVuSans-48"/>
       <use x="1221.09375" xlink:href="#DejaVuSans-48"/>
       <use x="1284.716797" xlink:href="#DejaVuSans-48"/>
       <use x="1348.339844" xlink:href="#DejaVuSans-56"/>
       <use x="1411.962891" xlink:href="#DejaVuSans-55"/>
      </g>
     </g>
    </g>
    <g id="xtick_6">
     <g id="line2d_6">
      <g>
       <use style="stroke:#000000;stroke-width:0.8;" x="317.567371" xlink:href="#m025cb4228a" y="276.48"/>
      </g>
     </g>
     <g id="text_6">
      <!-- 2021-03-26 13:03:10.151197 -->
      <g transform="translate(188.73736 363.840127)rotate(-30)scale(0.1 -0.1)">
       <use xlink:href="#DejaVuSans-50"/>
       <use x="63.623047" xlink:href="#DejaVuSans-48"/>
       <use x="127.246094" xlink:href="#DejaVuSans-50"/>
       <use x="190.869141" xlink:href="#DejaVuSans-49"/>
       <use x="254.492188" xlink:href="#DejaVuSans-45"/>
       <use x="290.576172" xlink:href="#DejaVuSans-48"/>
       <use x="354.199219" xlink:href="#DejaVuSans-51"/>
       <use x="417.822266" xlink:href="#DejaVuSans-45"/>
       <use x="453.90625" xlink:href="#DejaVuSans-50"/>
       <use x="517.529297" xlink:href="#DejaVuSans-54"/>
       <use x="581.152344" xlink:href="#DejaVuSans-32"/>
       <use x="612.939453" xlink:href="#DejaVuSans-49"/>
       <use x="676.5625" xlink:href="#DejaVuSans-51"/>
       <use x="740.185547" xlink:href="#DejaVuSans-58"/>
       <use x="773.876953" xlink:href="#DejaVuSans-48"/>
       <use x="837.5" xlink:href="#DejaVuSans-51"/>
       <use x="901.123047" xlink:href="#DejaVuSans-58"/>
       <use x="934.814453" xlink:href="#DejaVuSans-49"/>
       <use x="998.4375" xlink:href="#DejaVuSans-48"/>
       <use x="1062.060547" xlink:href="#DejaVuSans-46"/>
       <use x="1093.847656" xlink:href="#DejaVuSans-49"/>
       <use x="1157.470703" xlink:href="#DejaVuSans-53"/>
       <use x="1221.09375" xlink:href="#DejaVuSans-49"/>
       <use x="1284.716797" xlink:href="#DejaVuSans-49"/>
       <use x="1348.339844" xlink:href="#DejaVuSans-57"/>
       <use x="1411.962891" xlink:href="#DejaVuSans-55"/>
      </g>
     </g>
    </g>
    <g id="xtick_7">
     <g id="line2d_7">
      <g>
       <use style="stroke:#000000;stroke-width:0.8;" x="366.3143" xlink:href="#m025cb4228a" y="276.48"/>
      </g>
     </g>
     <g id="text_7">
      <!-- 2021-03-28 06:07:25.015948 -->
      <g transform="translate(237.484289 363.840127)rotate(-30)scale(0.1 -0.1)">
       <use xlink:href="#DejaVuSans-50"/>
       <use x="63.623047" xlink:href="#DejaVuSans-48"/>
       <use x="127.246094" xlink:href="#DejaVuSans-50"/>
       <use x="190.869141" xlink:href="#DejaVuSans-49"/>
       <use x="254.492188" xlink:href="#DejaVuSans-45"/>
       <use x="290.576172" xlink:href="#DejaVuSans-48"/>
       <use x="354.199219" xlink:href="#DejaVuSans-51"/>
       <use x="417.822266" xlink:href="#DejaVuSans-45"/>
       <use x="453.90625" xlink:href="#DejaVuSans-50"/>
       <use x="517.529297" xlink:href="#DejaVuSans-56"/>
       <use x="581.152344" xlink:href="#DejaVuSans-32"/>
       <use x="612.939453" xlink:href="#DejaVuSans-48"/>
       <use x="676.5625" xlink:href="#DejaVuSans-54"/>
       <use x="740.185547" xlink:href="#DejaVuSans-58"/>
       <use x="773.876953" xlink:href="#DejaVuSans-48"/>
       <use x="837.5" xlink:href="#DejaVuSans-55"/>
       <use x="901.123047" xlink:href="#DejaVuSans-58"/>
       <use x="934.814453" xlink:href="#DejaVuSans-50"/>
       <use x="998.4375" xlink:href="#DejaVuSans-53"/>
       <use x="1062.060547" xlink:href="#DejaVuSans-46"/>
       <use x="1093.847656" xlink:href="#DejaVuSans-48"/>
       <use x="1157.470703" xlink:href="#DejaVuSans-49"/>
       <use x="1221.09375" xlink:href="#DejaVuSans-53"/>
       <use x="1284.716797" xlink:href="#DejaVuSans-57"/>
       <use x="1348.339844" xlink:href="#DejaVuSans-52"/>
       <use x="1411.962891" xlink:href="#DejaVuSans-56"/>
      </g>
     </g>
    </g>
   </g>
   <g id="matplotlib.axis_2">
    <g id="ytick_1">
     <g id="line2d_8">
      <defs>
       <path d="M 0 0 
L -3.5 0 
" id="mdb1b91493e" style="stroke:#000000;stroke-width:0.8;"/>
      </defs>
      <g>
       <use style="stroke:#000000;stroke-width:0.8;" x="57.6" xlink:href="#mdb1b91493e" y="264.1374"/>
      </g>
     </g>
     <g id="text_8">
      <!-- 0.2 -->
      <g transform="translate(34.696875 267.936619)scale(0.1 -0.1)">
       <use xlink:href="#DejaVuSans-48"/>
       <use x="63.623047" xlink:href="#DejaVuSans-46"/>
       <use x="95.410156" xlink:href="#DejaVuSans-50"/>
      </g>
     </g>
    </g>
    <g id="ytick_2">
     <g id="line2d_9">
      <g>
       <use style="stroke:#000000;stroke-width:0.8;" x="57.6" xlink:href="#mdb1b91493e" y="236.058962"/>
      </g>
     </g>
     <g id="text_9">
      <!-- 0.4 -->
      <g transform="translate(34.696875 239.858181)scale(0.1 -0.1)">
       <use xlink:href="#DejaVuSans-48"/>
       <use x="63.623047" xlink:href="#DejaVuSans-46"/>
       <use x="95.410156" xlink:href="#DejaVuSans-52"/>
      </g>
     </g>
    </g>
    <g id="ytick_3">
     <g id="line2d_10">
      <g>
       <use style="stroke:#000000;stroke-width:0.8;" x="57.6" xlink:href="#mdb1b91493e" y="207.980525"/>
      </g>
     </g>
     <g id="text_10">
      <!-- 0.6 -->
      <g transform="translate(34.696875 211.779744)scale(0.1 -0.1)">
       <use xlink:href="#DejaVuSans-48"/>
       <use x="63.623047" xlink:href="#DejaVuSans-46"/>
       <use x="95.410156" xlink:href="#DejaVuSans-54"/>
      </g>
     </g>
    </g>
    <g id="ytick_4">
     <g id="line2d_11">
      <g>
       <use style="stroke:#000000;stroke-width:0.8;" x="57.6" xlink:href="#mdb1b91493e" y="179.902087"/>
      </g>
     </g>
     <g id="text_11">
      <!-- 0.8 -->
      <g transform="translate(34.696875 183.701306)scale(0.1 -0.1)">
       <use xlink:href="#DejaVuSans-48"/>
       <use x="63.623047" xlink:href="#DejaVuSans-46"/>
       <use x="95.410156" xlink:href="#DejaVuSans-56"/>
      </g>
     </g>
    </g>
    <g id="ytick_5">
     <g id="line2d_12">
      <g>
       <use style="stroke:#000000;stroke-width:0.8;" x="57.6" xlink:href="#mdb1b91493e" y="151.82365"/>
      </g>
     </g>
     <g id="text_12">
      <!-- 1.0 -->
      <g transform="translate(34.696875 155.622869)scale(0.1 -0.1)">
       <use xlink:href="#DejaVuSans-49"/>
       <use x="63.623047" xlink:href="#DejaVuSans-46"/>
       <use x="95.410156" xlink:href="#DejaVuSans-48"/>
      </g>
     </g>
    </g>
    <g id="ytick_6">
     <g id="line2d_13">
      <g>
       <use style="stroke:#000000;stroke-width:0.8;" x="57.6" xlink:href="#mdb1b91493e" y="123.745212"/>
      </g>
     </g>
     <g id="text_13">
      <!-- 1.2 -->
      <g transform="translate(34.696875 127.544431)scale(0.1 -0.1)">
       <use xlink:href="#DejaVuSans-49"/>
       <use x="63.623047" xlink:href="#DejaVuSans-46"/>
       <use x="95.410156" xlink:href="#DejaVuSans-50"/>
      </g>
     </g>
    </g>
    <g id="ytick_7">
     <g id="line2d_14">
      <g>
       <use style="stroke:#000000;stroke-width:0.8;" x="57.6" xlink:href="#mdb1b91493e" y="95.666775"/>
      </g>
     </g>
     <g id="text_14">
      <!-- 1.4 -->
      <g transform="translate(34.696875 99.465994)scale(0.1 -0.1)">
       <use xlink:href="#DejaVuSans-49"/>
       <use x="63.623047" xlink:href="#DejaVuSans-46"/>
       <use x="95.410156" xlink:href="#DejaVuSans-52"/>
      </g>
     </g>
    </g>
    <g id="ytick_8">
     <g id="line2d_15">
      <g>
       <use style="stroke:#000000;stroke-width:0.8;" x="57.6" xlink:href="#mdb1b91493e" y="67.588337"/>
      </g>
     </g>
     <g id="text_15">
      <!-- 1.6 -->
      <g transform="translate(34.696875 71.387556)scale(0.1 -0.1)">
       <use xlink:href="#DejaVuSans-49"/>
       <use x="63.623047" xlink:href="#DejaVuSans-46"/>
       <use x="95.410156" xlink:href="#DejaVuSans-54"/>
      </g>
     </g>
    </g>
    <g id="text_16">
     <!-- Response time [s] -->
     <g transform="translate(28.617187 203.970531)rotate(-90)scale(0.1 -0.1)">
      <defs>
       <path d="M 44.390625 34.1875 
Q 47.5625 33.109375 50.5625 29.59375 
Q 53.5625 26.078125 56.59375 19.921875 
L 66.609375 0 
L 56 0 
L 46.6875 18.703125 
Q 43.0625 26.03125 39.671875 28.421875 
Q 36.28125 30.8125 30.421875 30.8125 
L 19.671875 30.8125 
L 19.671875 0 
L 9.8125 0 
L 9.8125 72.90625 
L 32.078125 72.90625 
Q 44.578125 72.90625 50.734375 67.671875 
Q 56.890625 62.453125 56.890625 51.90625 
Q 56.890625 45.015625 53.6875 40.46875 
Q 50.484375 35.9375 44.390625 34.1875 
z
M 19.671875 64.796875 
L 19.671875 38.921875 
L 32.078125 38.921875 
Q 39.203125 38.921875 42.84375 42.21875 
Q 46.484375 45.515625 46.484375 51.90625 
Q 46.484375 58.296875 42.84375 61.546875 
Q 39.203125 64.796875 32.078125 64.796875 
z
" id="DejaVuSans-82"/>
       <path d="M 56.203125 29.59375 
L 56.203125 25.203125 
L 14.890625 25.203125 
Q 15.484375 15.921875 20.484375 11.0625 
Q 25.484375 6.203125 34.421875 6.203125 
Q 39.59375 6.203125 44.453125 7.46875 
Q 49.3125 8.734375 54.109375 11.28125 
L 54.109375 2.78125 
Q 49.265625 0.734375 44.1875 -0.34375 
Q 39.109375 -1.421875 33.890625 -1.421875 
Q 20.796875 -1.421875 13.15625 6.1875 
Q 5.515625 13.8125 5.515625 26.8125 
Q 5.515625 40.234375 12.765625 48.109375 
Q 20.015625 56 32.328125 56 
Q 43.359375 56 49.78125 48.890625 
Q 56.203125 41.796875 56.203125 29.59375 
z
M 47.21875 32.234375 
Q 47.125 39.59375 43.09375 43.984375 
Q 39.0625 48.390625 32.421875 48.390625 
Q 24.90625 48.390625 20.390625 44.140625 
Q 15.875 39.890625 15.1875 32.171875 
z
" id="DejaVuSans-101"/>
       <path d="M 44.28125 53.078125 
L 44.28125 44.578125 
Q 40.484375 46.53125 36.375 47.5 
Q 32.28125 48.484375 27.875 48.484375 
Q 21.1875 48.484375 17.84375 46.4375 
Q 14.5 44.390625 14.5 40.28125 
Q 14.5 37.15625 16.890625 35.375 
Q 19.28125 33.59375 26.515625 31.984375 
L 29.59375 31.296875 
Q 39.15625 29.25 43.1875 25.515625 
Q 47.21875 21.78125 47.21875 15.09375 
Q 47.21875 7.46875 41.1875 3.015625 
Q 35.15625 -1.421875 24.609375 -1.421875 
Q 20.21875 -1.421875 15.453125 -0.5625 
Q 10.6875 0.296875 5.421875 2 
L 5.421875 11.28125 
Q 10.40625 8.6875 15.234375 7.390625 
Q 20.0625 6.109375 24.8125 6.109375 
Q 31.15625 6.109375 34.5625 8.28125 
Q 37.984375 10.453125 37.984375 14.40625 
Q 37.984375 18.0625 35.515625 20.015625 
Q 33.0625 21.96875 24.703125 23.78125 
L 21.578125 24.515625 
Q 13.234375 26.265625 9.515625 29.90625 
Q 5.8125 33.546875 5.8125 39.890625 
Q 5.8125 47.609375 11.28125 51.796875 
Q 16.75 56 26.8125 56 
Q 31.78125 56 36.171875 55.265625 
Q 40.578125 54.546875 44.28125 53.078125 
z
" id="DejaVuSans-115"/>
       <path d="M 18.109375 8.203125 
L 18.109375 -20.796875 
L 9.078125 -20.796875 
L 9.078125 54.6875 
L 18.109375 54.6875 
L 18.109375 46.390625 
Q 20.953125 51.265625 25.265625 53.625 
Q 29.59375 56 35.59375 56 
Q 45.5625 56 51.78125 48.09375 
Q 58.015625 40.1875 58.015625 27.296875 
Q 58.015625 14.40625 51.78125 6.484375 
Q 45.5625 -1.421875 35.59375 -1.421875 
Q 29.59375 -1.421875 25.265625 0.953125 
Q 20.953125 3.328125 18.109375 8.203125 
z
M 48.6875 27.296875 
Q 48.6875 37.203125 44.609375 42.84375 
Q 40.53125 48.484375 33.40625 48.484375 
Q 26.265625 48.484375 22.1875 42.84375 
Q 18.109375 37.203125 18.109375 27.296875 
Q 18.109375 17.390625 22.1875 11.75 
Q 26.265625 6.109375 33.40625 6.109375 
Q 40.53125 6.109375 44.609375 11.75 
Q 48.6875 17.390625 48.6875 27.296875 
z
" id="DejaVuSans-112"/>
       <path d="M 30.609375 48.390625 
Q 23.390625 48.390625 19.1875 42.75 
Q 14.984375 37.109375 14.984375 27.296875 
Q 14.984375 17.484375 19.15625 11.84375 
Q 23.34375 6.203125 30.609375 6.203125 
Q 37.796875 6.203125 41.984375 11.859375 
Q 46.1875 17.53125 46.1875 27.296875 
Q 46.1875 37.015625 41.984375 42.703125 
Q 37.796875 48.390625 30.609375 48.390625 
z
M 30.609375 56 
Q 42.328125 56 49.015625 48.375 
Q 55.71875 40.765625 55.71875 27.296875 
Q 55.71875 13.875 49.015625 6.21875 
Q 42.328125 -1.421875 30.609375 -1.421875 
Q 18.84375 -1.421875 12.171875 6.21875 
Q 5.515625 13.875 5.515625 27.296875 
Q 5.515625 40.765625 12.171875 48.375 
Q 18.84375 56 30.609375 56 
z
" id="DejaVuSans-111"/>
       <path d="M 54.890625 33.015625 
L 54.890625 0 
L 45.90625 0 
L 45.90625 32.71875 
Q 45.90625 40.484375 42.875 44.328125 
Q 39.84375 48.1875 33.796875 48.1875 
Q 26.515625 48.1875 22.3125 43.546875 
Q 18.109375 38.921875 18.109375 30.90625 
L 18.109375 0 
L 9.078125 0 
L 9.078125 54.6875 
L 18.109375 54.6875 
L 18.109375 46.1875 
Q 21.34375 51.125 25.703125 53.5625 
Q 30.078125 56 35.796875 56 
Q 45.21875 56 50.046875 50.171875 
Q 54.890625 44.34375 54.890625 33.015625 
z
" id="DejaVuSans-110"/>
       <path d="M 18.3125 70.21875 
L 18.3125 54.6875 
L 36.8125 54.6875 
L 36.8125 47.703125 
L 18.3125 47.703125 
L 18.3125 18.015625 
Q 18.3125 11.328125 20.140625 9.421875 
Q 21.96875 7.515625 27.59375 7.515625 
L 36.8125 7.515625 
L 36.8125 0 
L 27.59375 0 
Q 17.1875 0 13.234375 3.875 
Q 9.28125 7.765625 9.28125 18.015625 
L 9.28125 47.703125 
L 2.6875 47.703125 
L 2.6875 54.6875 
L 9.28125 54.6875 
L 9.28125 70.21875 
z
" id="DejaVuSans-116"/>
       <path d="M 9.421875 54.6875 
L 18.40625 54.6875 
L 18.40625 0 
L 9.421875 0 
z
M 9.421875 75.984375 
L 18.40625 75.984375 
L 18.40625 64.59375 
L 9.421875 64.59375 
z
" id="DejaVuSans-105"/>
       <path d="M 52 44.1875 
Q 55.375 50.25 60.0625 53.125 
Q 64.75 56 71.09375 56 
Q 79.640625 56 84.28125 50.015625 
Q 88.921875 44.046875 88.921875 33.015625 
L 88.921875 0 
L 79.890625 0 
L 79.890625 32.71875 
Q 79.890625 40.578125 77.09375 44.375 
Q 74.3125 48.1875 68.609375 48.1875 
Q 61.625 48.1875 57.5625 43.546875 
Q 53.515625 38.921875 53.515625 30.90625 
L 53.515625 0 
L 44.484375 0 
L 44.484375 32.71875 
Q 44.484375 40.625 41.703125 44.40625 
Q 38.921875 48.1875 33.109375 48.1875 
Q 26.21875 48.1875 22.15625 43.53125 
Q 18.109375 38.875 18.109375 30.90625 
L 18.109375 0 
L 9.078125 0 
L 9.078125 54.6875 
L 18.109375 54.6875 
L 18.109375 46.1875 
Q 21.1875 51.21875 25.484375 53.609375 
Q 29.78125 56 35.6875 56 
Q 41.65625 56 45.828125 52.96875 
Q 50 49.953125 52 44.1875 
z
" id="DejaVuSans-109"/>
       <path d="M 8.59375 75.984375 
L 29.296875 75.984375 
L 29.296875 69 
L 17.578125 69 
L 17.578125 -6.203125 
L 29.296875 -6.203125 
L 29.296875 -13.1875 
L 8.59375 -13.1875 
z
" id="DejaVuSans-91"/>
       <path d="M 30.421875 75.984375 
L 30.421875 -13.1875 
L 9.71875 -13.1875 
L 9.71875 -6.203125 
L 21.390625 -6.203125 
L 21.390625 69 
L 9.71875 69 
L 9.71875 75.984375 
z
" id="DejaVuSans-93"/>
      </defs>
      <use xlink:href="#DejaVuSans-82"/>
      <use x="64.982422" xlink:href="#DejaVuSans-101"/>
      <use x="126.505859" xlink:href="#DejaVuSans-115"/>
      <use x="178.605469" xlink:href="#DejaVuSans-112"/>
      <use x="242.082031" xlink:href="#DejaVuSans-111"/>
      <use x="303.263672" xlink:href="#DejaVuSans-110"/>
      <use x="366.642578" xlink:href="#DejaVuSans-115"/>
      <use x="418.742188" xlink:href="#DejaVuSans-101"/>
      <use x="480.265625" xlink:href="#DejaVuSans-32"/>
      <use x="512.052734" xlink:href="#DejaVuSans-116"/>
      <use x="551.261719" xlink:href="#DejaVuSans-105"/>
      <use x="579.044922" xlink:href="#DejaVuSans-109"/>
      <use x="676.457031" xlink:href="#DejaVuSans-101"/>
      <use x="737.980469" xlink:href="#DejaVuSans-32"/>
      <use x="769.767578" xlink:href="#DejaVuSans-91"/>
      <use x="808.78125" xlink:href="#DejaVuSans-115"/>
      <use x="860.880859" xlink:href="#DejaVuSans-93"/>
     </g>
    </g>
   </g>
   <g id="line2d_16">
    <path clip-path="url(#pea074e7bbd)" d="M 73.832727 259.578023 
L 74.157707 259.775555 
L 74.482686 260.576914 
L 74.807666 256.699422 
L 75.132645 254.713293 
L 75.457625 254.524606 
L 75.782604 253.958264 
L 76.107584 249.525802 
L 76.432563 261.605567 
L 76.757543 259.594589 
L 77.082523 254.265302 
L 77.732482 252.056933 
L 78.057461 258.664351 
L 78.382441 142.358689 
L 78.70742 262.964844 
L 79.0324 247.595971 
L 79.357379 252.820526 
L 79.682359 193.093899 
L 80.007338 246.250874 
L 80.332318 256.606763 
L 80.657297 208.874121 
L 80.982277 252.690382 
L 81.307256 255.299992 
L 81.632236 255.432382 
L 81.957215 254.50804 
L 82.282195 252.900269 
L 82.607174 252.305848 
L 82.932154 216.538271 
L 83.257133 52.154182 
L 83.582113 251.346548 
L 83.907093 250.388231 
L 84.232072 252.416196 
L 84.557052 208.131025 
L 84.882031 190.606851 
L 85.207011 259.166253 
L 85.53199 240.115595 
L 85.85697 252.802275 
L 86.181949 256.796713 
L 86.506929 224.1092 
L 86.831908 220.904187 
L 87.156888 241.984776 
L 87.481867 196.568605 
L 87.806847 258.451797 
L 88.131826 243.655584 
L 88.456806 220.102829 
L 88.781785 254.090794 
L 89.106765 243.616555 
L 89.431744 253.793725 
L 89.756724 246.008276 
L 90.081704 252.32452 
L 90.406683 204.710089 
L 90.731663 245.038447 
L 91.056642 255.171112 
L 91.706601 258.662666 
L 92.031581 248.111632 
L 92.35656 246.575741 
L 92.68154 249.157132 
L 93.006519 249.92957 
L 93.331499 255.2312 
L 93.656478 250.708045 
L 93.981458 257.202307 
L 94.306437 256.519018 
L 94.631417 257.430303 
L 94.956396 253.79569 
L 95.281376 252.745416 
L 95.606355 256.360094 
L 95.931335 242.481905 
L 96.256314 254.773802 
L 96.581294 259.588553 
L 96.906274 254.246068 
L 97.231253 258.063191 
L 97.556233 253.753572 
L 97.881212 256.34816 
L 98.206192 243.541024 
L 98.531171 249.660579 
L 98.856151 258.427509 
L 99.18113 258.026549 
L 99.50611 253.952368 
L 100.156069 262.541 
L 100.481048 244.768894 
L 101.131007 259.904435 
L 101.455987 253.871502 
L 101.780966 256.782815 
L 102.105946 254.161973 
L 102.430925 258.491668 
L 102.755905 215.763727 
L 103.080885 193.647184 
L 103.405864 215.63934 
L 103.730844 253.233139 
L 104.055823 250.400867 
L 104.380803 255.968961 
L 104.705782 241.84649 
L 105.030762 258.015739 
L 105.355741 208.272962 
L 105.680721 200.181318 
L 106.0057 257.562412 
L 106.33068 206.966612 
L 106.655659 259.080754 
L 106.980639 255.162548 
L 107.305618 218.528892 
L 107.630598 200.990959 
L 107.955577 248.26494 
L 108.280557 229.49661 
L 108.605536 255.496261 
L 108.930516 247.697475 
L 109.255495 153.1519 
L 109.580475 257.295527 
L 109.905455 258.257775 
L 110.230434 216.754475 
L 110.555414 248.98108 
L 110.880393 249.62871 
L 111.205373 223.385338 
L 111.530352 256.967852 
L 111.855332 134.733288 
L 112.180311 252.447083 
L 112.83027 244.023973 
L 113.15525 256.403896 
L 113.480229 256.837287 
L 114.455168 254.399236 
L 114.780147 247.237269 
L 115.105127 256.371466 
L 115.430106 253.950262 
L 115.755086 253.089377 
L 116.080066 258.498407 
L 116.405045 255.533745 
L 116.730025 255.860298 
L 117.055004 250.367874 
L 117.379984 257.068092 
L 117.704963 255.22025 
L 118.029943 255.57825 
L 118.354922 260.86556 
L 118.679902 261.972693 
L 119.004881 233.995759 
L 119.329861 258.547544 
L 119.65484 261.3523 
L 119.97982 256.02933 
L 120.304799 177.247833 
L 120.629779 255.508054 
L 120.954758 252.715653 
L 121.279738 212.849747 
L 121.604717 218.159801 
L 121.929697 210.04078 
L 122.254676 259.270283 
L 122.579656 223.868007 
L 122.904636 256.394069 
L 123.229615 242.062834 
L 123.554595 255.318103 
L 123.879574 258.1237 
L 124.204554 257.251865 
L 124.529533 256.984839 
L 124.854513 257.155556 
L 125.179492 215.119327 
L 125.504472 254.523062 
L 125.829451 258.350715 
L 126.154431 221.372816 
L 126.47941 222.020867 
L 126.80439 250.576076 
L 127.129369 218.811922 
L 127.454349 253.725354 
L 127.779328 185.197681 
L 128.104308 241.750602 
L 128.429287 249.920866 
L 128.754267 209.988695 
L 129.079247 258.970546 
L 129.404226 167.111797 
L 129.729206 257.6152 
L 130.054185 256.708126 
L 130.379165 254.424086 
L 130.704144 253.298 
L 131.029124 198.15265 
L 131.354103 252.107474 
L 131.679083 247.592742 
L 132.004062 210.242243 
L 132.329042 251.030245 
L 132.654021 256.678784 
L 132.979001 256.070605 
L 133.30398 222.338855 
L 133.62896 248.857535 
L 133.953939 220.379963 
L 134.603898 253.433338 
L 134.928878 256.761194 
L 135.253857 252.879491 
L 135.578837 212.314572 
L 135.903817 256.404879 
L 136.228796 259.117958 
L 136.553776 212.802294 
L 136.878755 252.226386 
L 137.203735 257.958038 
L 137.528714 210.7565 
L 137.853694 258.593874 
L 138.178673 221.985628 
L 138.503653 214.867042 
L 138.828632 252.212628 
L 139.153612 260.667326 
L 139.478591 257.164401 
L 139.803571 256.250026 
L 140.12855 253.026341 
L 140.45353 260.14254 
L 140.778509 221.888758 
L 141.103489 207.050988 
L 141.428468 251.38277 
L 141.753448 208.255272 
L 142.078428 220.126695 
L 142.403407 243.271611 
L 142.728387 210.16601 
L 143.053366 217.539548 
L 143.378346 251.265402 
L 143.703325 247.289916 
L 144.028305 219.012402 
L 144.353284 254.046711 
L 144.678264 252.637876 
L 145.003243 258.403502 
L 145.328223 165.017708 
L 145.978182 250.076561 
L 146.303161 254.970071 
L 146.628141 244.765665 
L 146.95312 256.27993 
L 147.2781 213.400646 
L 147.603079 256.073834 
L 147.928059 248.945 
L 148.253038 214.615319 
L 148.578018 218.515976 
L 148.902998 251.659763 
L 149.227977 165.96367 
L 149.877936 256.274595 
L 150.202916 254.482629 
L 150.527895 251.429941 
L 150.852875 138.869101 
L 151.177854 237.573513 
L 151.502834 255.392511 
L 151.827813 258.013773 
L 152.477772 252.354283 
L 152.802752 218.892086 
L 153.127731 259.039479 
L 153.452711 259.636145 
L 154.10267 248.185618 
L 154.427649 247.442663 
L 154.752629 204.440676 
L 155.077609 255.214353 
L 155.727568 258.444918 
L 156.052547 253.631572 
L 156.377527 258.467381 
L 156.702506 257.204693 
L 157.027486 255.029878 
L 157.352465 255.161425 
L 157.677445 257.052648 
L 158.002424 231.886928 
L 158.327404 259.083843 
L 158.977363 262.778123 
L 159.302342 169.558272 
L 159.627322 260.664237 
L 159.952301 201.566006 
L 160.277281 255.211545 
L 160.60226 220.921315 
L 160.92724 260.512614 
L 161.252219 257.989064 
L 161.577199 254.54019 
L 161.902179 222.209975 
L 162.227158 257.660406 
L 162.552138 165.994135 
L 162.877117 250.115449 
L 163.202097 256.421445 
L 163.527076 251.646566 
L 163.852056 251.192398 
L 164.177035 253.483317 
L 164.502015 258.171715 
L 164.826994 257.426513 
L 165.151974 262.94168 
L 165.476953 258.892488 
L 166.126912 166.456868 
L 166.451892 253.945067 
L 166.776871 258.173118 
L 167.101851 219.119241 
L 167.42683 160.296178 
L 167.75181 224.440666 
L 168.07679 258.881818 
L 168.401769 255.798665 
L 168.726749 247.461756 
L 169.051728 207.696371 
L 169.376708 252.380677 
L 169.701687 209.157433 
L 170.026667 255.753459 
L 170.351646 254.720594 
L 170.676626 210.947152 
L 171.001605 254.409485 
L 171.326585 215.933181 
L 171.651564 261.404245 
L 171.976544 261.256973 
L 172.301523 259.194191 
L 172.626503 259.214688 
L 172.951482 256.277262 
L 173.601441 261.1733 
L 174.2514 258.823977 
L 174.57638 256.710232 
L 174.90136 260.509946 
L 175.226339 261.352721 
L 175.551319 259.974912 
L 175.876298 254.964174 
L 176.201278 224.232044 
L 176.526257 258.426667 
L 176.851237 254.499897 
L 177.176216 258.321653 
L 177.501196 254.634814 
L 177.826175 202.598731 
L 178.151155 259.143228 
L 178.476134 214.475067 
L 178.801114 215.548366 
L 179.126093 259.47315 
L 179.451073 257.798833 
L 179.776052 238.791275 
L 180.101032 263.326635 
L 180.426011 259.174817 
L 180.750991 260.889146 
L 181.075971 256.533197 
L 181.40095 244.690134 
L 181.72593 258.278132 
L 182.050909 260.269735 
L 182.375889 223.817044 
L 182.700868 248.595423 
L 183.025848 228.965647 
L 183.350827 216.559189 
L 183.675807 259.743686 
L 184.000786 224.605206 
L 184.325766 254.81213 
L 184.650745 250.217234 
L 184.975725 260.316486 
L 185.300704 259.953572 
L 185.625684 257.084939 
L 185.950663 258.164133 
L 186.275643 205.318549 
L 186.600622 260.645285 
L 186.925602 259.718696 
L 187.250581 257.416966 
L 187.575561 249.038641 
L 187.900541 260.048477 
L 188.22552 261.855465 
L 188.5505 166.319986 
L 188.875479 222.143991 
L 189.200459 256.485604 
L 189.525438 260.773743 
L 189.850418 253.640136 
L 190.175397 225.498802 
L 190.500377 255.928809 
L 190.825356 261.213592 
L 191.150336 244.589894 
L 191.475315 254.507619 
L 191.800295 259.40857 
L 192.125274 211.00022 
L 192.450254 255.079577 
L 192.775233 237.940779 
L 193.100213 250.756199 
L 193.425192 258.697062 
L 193.750172 255.409639 
L 194.075152 256.23346 
L 194.400131 264.196084 
L 194.725111 216.952709 
L 195.05009 218.511483 
L 195.37507 259.023474 
L 195.700049 218.994853 
L 196.025029 255.1238 
L 196.350008 257.550339 
L 196.674988 215.875479 
L 196.999967 261.569065 
L 197.324947 247.380188 
L 197.649926 258.970406 
L 197.974906 237.721206 
L 198.299885 246.695074 
L 198.624865 241.683354 
L 198.949844 221.238601 
L 199.274824 223.00277 
L 199.599803 246.777906 
L 199.924783 217.315623 
L 200.249762 204.180249 
L 200.574742 220.302887 
L 200.899722 219.039779 
L 201.224701 236.627972 
L 201.549681 211.561368 
L 201.87466 248.117388 
L 202.19964 213.464805 
L 202.524619 256.571103 
L 202.849599 216.622506 
L 203.174578 253.417614 
L 203.499558 252.645878 
L 203.824537 218.539 
L 204.149517 257.133093 
L 204.474496 247.416831 
L 204.799476 248.485356 
L 205.124455 221.570208 
L 205.449435 251.846204 
L 205.774414 258.172136 
L 206.099394 252.383204 
L 206.424373 255.719344 
L 206.749353 239.375868 
L 207.074333 254.518008 
L 207.399312 247.016713 
L 207.724292 255.567018 
L 208.049271 251.113497 
L 208.374251 250.572145 
L 208.69923 254.396569 
L 209.02421 259.586306 
L 209.349189 199.947003 
L 209.674169 254.155094 
L 209.999148 258.559759 
L 210.324128 255.248468 
L 210.649107 257.864115 
L 210.974087 262.050751 
L 211.299066 245.04336 
L 211.624046 255.28848 
L 211.949025 257.358282 
L 212.274005 224.461304 
L 212.598984 247.518194 
L 212.923964 238.186044 
L 213.248943 208.084134 
L 213.573923 258.718963 
L 213.898903 244.071144 
L 214.223882 257.231929 
L 214.548862 248.675868 
L 214.873841 256.812718 
L 215.198821 247.102493 
L 215.5238 200.440903 
L 215.84878 254.055556 
L 216.173759 259.230272 
L 216.498739 254.967684 
L 216.823718 259.041444 
L 217.148698 253.154379 
L 217.473677 249.655805 
L 217.798657 259.156004 
L 218.123636 167.374331 
L 218.448616 261.323519 
L 218.773595 250.919054 
L 219.098575 256.753052 
L 219.423554 210.612317 
L 219.748534 255.350393 
L 220.073514 257.822278 
L 220.398493 211.067468 
L 220.723473 252.65725 
L 221.048452 257.173105 
L 221.373432 248.508941 
L 221.698411 247.5203 
L 222.023391 245.777611 
L 222.34837 257.366846 
L 222.67335 240.884944 
L 222.998329 240.28238 
L 223.323309 253.822926 
L 223.648288 257.088589 
L 223.973268 251.572861 
L 224.298247 250.0906 
L 224.623227 201.607 
L 224.948206 247.453473 
L 225.273186 187.717299 
L 225.923145 229.382752 
L 226.248124 258.28122 
L 226.573104 203.535147 
L 226.898084 239.024186 
L 227.223063 252.692769 
L 227.548043 249.880152 
L 227.873022 257.180686 
L 228.198002 255.237518 
L 228.522981 259.678684 
L 228.847961 256.392103 
L 229.17294 251.181166 
L 229.49792 221.918802 
L 229.822899 257.199218 
L 230.147879 246.217179 
L 230.472858 260.252748 
L 230.797838 236.547808 
L 231.122817 259.715888 
L 231.447797 240.535508 
L 231.772776 259.773589 
L 232.097756 236.259723 
L 232.422735 245.812429 
L 232.747715 264.311065 
L 233.072695 241.984917 
L 233.397674 245.82366 
L 233.722654 211.636337 
L 234.047633 246.137437 
L 234.372613 245.771855 
L 235.022572 256.454016 
L 235.347551 251.365642 
L 235.672531 222.290841 
L 235.99751 258.969563 
L 236.32249 261.560642 
L 236.647469 256.221106 
L 236.972449 244.639592 
L 237.297428 260.044687 
L 237.622408 250.319439 
L 237.947387 260.811649 
L 238.272367 253.802148 
L 238.597346 260.508402 
L 238.922326 255.738999 
L 239.247305 253.41635 
L 239.572285 257.917324 
L 239.897265 252.500291 
L 240.222244 209.304423 
L 240.547224 260.689929 
L 241.197183 256.153015 
L 241.522162 250.385845 
L 241.847142 259.267476 
L 242.172121 208.85587 
L 242.497101 248.603425 
L 242.82208 254.404852 
L 243.14706 233.615857 
L 243.472039 243.213208 
L 243.797019 243.716654 
L 244.121998 245.520975 
L 244.446978 244.709929 
L 244.771957 245.078037 
L 245.096937 208.184515 
L 245.421916 239.152925 
L 246.396855 257.34312 
L 246.721835 256.024837 
L 247.046814 247.598358 
L 247.371794 259.32644 
L 247.696773 249.408294 
L 248.021753 138.42139 
L 248.346732 247.226178 
L 248.671712 255.6608 
L 248.996691 240.548143 
L 249.321671 253.958826 
L 249.64665 251.252907 
L 249.97163 208.510505 
L 250.296609 198.848715 
L 250.621589 249.53212 
L 250.946568 252.647984 
L 251.271548 238.932088 
L 251.596527 185.103337 
L 251.921507 256.027645 
L 252.246486 241.55307 
L 252.571466 254.834452 
L 252.896446 251.51544 
L 253.221425 249.734425 
L 253.546405 166.186332 
L 253.871384 255.007555 
L 254.196364 202.387721 
L 254.521343 245.736055 
L 254.846323 256.59132 
L 255.171302 210.867409 
L 255.496282 193.360363 
L 255.821261 252.337156 
L 256.146241 252.264854 
L 256.7962 225.161159 
L 257.121179 238.842659 
L 257.446159 233.816057 
L 257.771138 249.416437 
L 258.096118 220.081629 
L 258.421097 254.845683 
L 258.746077 237.62265 
L 259.071057 248.709702 
L 259.396036 252.385872 
L 259.721016 258.450253 
L 260.045995 253.05807 
L 260.370975 249.847862 
L 260.695954 252.112388 
L 261.020934 246.155126 
L 261.345913 257.936417 
L 261.670893 245.921373 
L 261.995872 247.625875 
L 262.320852 228.92718 
L 262.970811 255.763287 
L 263.29579 249.80771 
L 263.62077 249.833542 
L 263.945749 242.043039 
L 264.270729 252.430797 
L 264.595708 248.539828 
L 264.920688 211.797508 
L 265.245667 239.984889 
L 265.570647 219.544068 
L 265.895627 252.832038 
L 266.220606 257.911287 
L 266.545586 251.863332 
L 266.870565 167.97549 
L 267.195545 244.986361 
L 267.520524 249.870184 
L 267.845504 256.977819 
L 268.170483 245.87729 
L 268.495463 249.808552 
L 268.820442 249.73639 
L 269.145422 255.557191 
L 269.470401 239.851798 
L 269.795381 241.676334 
L 270.12036 250.524973 
L 270.44534 251.957956 
L 270.770319 242.331264 
L 271.095299 240.186071 
L 271.420278 245.303226 
L 271.745258 247.120042 
L 272.070238 255.984404 
L 272.395217 250.429366 
L 272.720197 240.37883 
L 273.045176 258.334991 
L 273.370156 248.544461 
L 273.695135 256.683417 
L 274.020115 251.553486 
L 274.345094 221.411003 
L 274.670074 256.56647 
L 274.995053 255.716536 
L 275.645012 210.650082 
L 276.294971 253.370442 
L 276.619951 249.459958 
L 276.94493 253.954474 
L 277.26991 248.239248 
L 277.594889 246.674577 
L 277.919869 251.735996 
L 278.244848 255.049813 
L 278.569828 243.065515 
L 278.894808 244.222908 
L 279.219787 259.040602 
L 279.544767 255.287217 
L 279.869746 254.706274 
L 280.194726 255.151738 
L 280.519705 255.083508 
L 280.844685 251.086121 
L 281.169664 262.797216 
L 281.494644 250.310314 
L 281.819623 248.642314 
L 282.144603 243.584124 
L 282.469582 246.641585 
L 282.794562 256.075378 
L 283.119541 256.684821 
L 283.444521 233.516881 
L 283.7695 259.347499 
L 284.09448 254.990428 
L 284.419459 254.679599 
L 284.744439 135.2745 
L 285.069419 256.301269 
L 285.394398 253.138935 
L 285.719378 248.363776 
L 286.044357 257.480423 
L 286.369337 251.064079 
L 286.694316 242.039529 
L 287.019296 251.495504 
L 287.344275 197.217217 
L 287.669255 235.136445 
L 287.994234 250.389916 
L 288.319214 251.801138 
L 288.644193 249.082724 
L 288.969173 232.132333 
L 289.294152 251.035299 
L 289.619132 247.521704 
L 289.944111 247.802067 
L 290.269091 249.300473 
L 290.59407 256.583037 
L 290.91905 253.645892 
L 291.569009 226.573505 
L 291.893989 256.927699 
L 292.543948 242.549995 
L 292.868927 253.778001 
L 293.193907 253.96374 
L 293.518886 233.666679 
L 293.843866 248.412352 
L 294.168845 253.056946 
L 294.493825 253.78137 
L 294.818804 257.513837 
L 295.143784 258.371633 
L 295.468763 248.32587 
L 295.793743 253.075759 
L 296.118722 248.282208 
L 296.443702 253.746693 
L 296.768681 229.460529 
L 297.41864 255.840923 
L 297.74362 256.227283 
L 298.0686 255.206912 
L 298.393579 255.745036 
L 298.718559 254.044184 
L 299.043538 251.41155 
L 299.368518 198.368012 
L 299.693497 258.488299 
L 300.018477 260.386822 
L 300.343456 241.903629 
L 300.668436 249.086936 
L 300.993415 259.792402 
L 301.318395 258.935448 
L 301.643374 253.091483 
L 301.968354 250.514163 
L 302.293333 240.327868 
L 302.618313 250.501528 
L 302.943292 250.43077 
L 303.268272 252.513067 
L 303.593251 252.577086 
L 303.918231 254.521097 
L 304.24321 249.717859 
L 304.56819 254.317387 
L 304.89317 252.149311 
L 305.218149 258.73553 
L 305.543129 243.921346 
L 305.868108 255.603941 
L 306.193088 253.218959 
L 306.518067 208.165562 
L 306.843047 214.993676 
L 307.168026 162.022721 
L 307.493006 259.378105 
L 307.817985 254.327917 
L 308.142965 235.190496 
L 308.467944 256.912677 
L 308.792924 260.910064 
L 309.117903 250.682914 
L 309.442883 263.519253 
L 309.767862 257.407981 
L 310.092842 241.720558 
L 310.417821 252.919502 
L 310.742801 249.184509 
L 311.067781 255.722854 
L 311.39276 256.613923 
L 311.71774 255.918982 
L 312.042719 245.284554 
L 312.367699 257.320517 
L 312.692678 254.962209 
L 313.342637 253.225698 
L 313.667617 249.838315 
L 313.992596 259.956661 
L 314.642555 253.898738 
L 314.967535 258.920566 
L 315.292514 227.636554 
L 315.617494 256.773128 
L 315.942473 211.617665 
L 316.267453 249.200935 
L 316.592432 243.385329 
L 316.917412 253.305862 
L 317.242391 247.749981 
L 317.567371 252.070691 
L 317.892351 253.943242 
L 318.21733 256.877579 
L 318.54231 258.522976 
L 318.867289 251.790188 
L 319.192269 254.042359 
L 319.517248 236.956209 
L 319.842228 252.416758 
L 320.167207 259.489997 
L 320.492187 262.879486 
L 320.817166 253.575976 
L 321.142146 261.013393 
L 321.792105 240.848582 
L 322.117084 255.017664 
L 322.442064 238.403371 
L 322.767043 243.283123 
L 323.092023 210.487227 
L 323.417002 261.304847 
L 323.741982 254.899594 
L 324.066962 260.283634 
L 324.391941 249.49267 
L 324.716921 244.966425 
L 325.0419 252.726182 
L 325.691859 257.397171 
L 326.016839 258.248228 
L 326.341818 263.359767 
L 326.666798 253.410454 
L 326.991777 138.906726 
L 327.316757 255.162689 
L 327.641736 261.394979 
L 327.966716 260.43947 
L 328.291695 257.215644 
L 328.616675 258.707592 
L 328.941654 252.03461 
L 329.266634 259.700726 
L 329.591613 245.650978 
L 329.916593 256.053196 
L 330.241572 238.748736 
L 330.566552 254.914616 
L 330.891532 170.237068 
L 331.216511 260.92649 
L 331.541491 253.487389 
L 331.86647 239.032188 
L 332.19145 252.123058 
L 332.516429 133.984436 
L 332.841409 255.584146 
L 333.166388 260.312134 
L 333.491368 254.206758 
L 333.816347 255.290305 
L 334.141327 253.53077 
L 334.466306 250.140439 
L 334.791286 263.344465 
L 335.116265 256.99579 
L 335.441245 255.966434 
L 335.766224 170.718192 
L 336.091204 247.32361 
L 336.416183 193.968963 
L 336.741163 258.044519 
L 337.066143 259.541802 
L 337.391122 253.929624 
L 337.716102 256.85273 
L 338.041081 261.208538 
L 338.366061 168.809841 
L 338.69104 251.593077 
L 339.01602 257.039732 
L 339.340999 212.092191 
L 339.665979 260.293883 
L 339.990958 260.241095 
L 340.315938 258.54586 
L 340.640917 262.77714 
L 340.965897 248.944298 
L 341.290876 256.551448 
L 341.615856 259.01477 
L 341.940835 256.979364 
L 342.265815 264.693353 
L 342.915774 253.356403 
L 343.240753 249.358314 
L 343.565733 242.857735 
L 343.890713 261.19478 
L 344.215692 214.564216 
L 344.540672 255.917156 
L 344.865651 262.689816 
L 345.190631 253.038976 
L 345.51561 260.796627 
L 345.84059 260.630403 
L 346.165569 258.227731 
L 346.490549 259.696233 
L 346.815528 256.748138 
L 347.140508 255.616858 
L 347.465487 247.364605 
L 347.790467 248.690328 
L 348.115446 258.468925 
L 348.440426 260.812913 
L 348.765405 261.198009 
L 349.090385 260.092701 
L 349.740344 247.918171 
L 350.065324 256.802048 
L 350.390303 256.688611 
L 350.715283 263.332391 
L 351.040262 262.938591 
L 351.365242 259.177344 
L 351.690221 246.157232 
L 352.015201 254.953926 
L 352.34018 245.728334 
L 352.66516 259.392144 
L 352.990139 260.94783 
L 353.315119 247.515948 
L 353.640098 250.817831 
L 353.965078 247.945126 
L 354.290057 261.934787 
L 354.615037 217.091276 
L 354.940016 258.737214 
L 355.264996 256.218157 
L 355.589975 257.630222 
L 355.914955 208.233231 
L 356.239934 258.342853 
L 356.564914 170.712857 
L 356.889894 261.979853 
L 357.539853 245.165782 
L 357.864832 258.104467 
L 358.189812 245.90958 
L 358.514791 255.968961 
L 358.839771 256.994386 
L 359.16475 254.992955 
L 359.48973 247.813017 
L 359.814709 253.068178 
L 360.139689 265.797818 
L 360.464668 253.452291 
L 360.789648 257.291034 
L 361.114627 262.64124 
L 361.439607 257.349999 
L 361.764586 260.637563 
L 362.089566 265.22586 
L 362.414545 213.382395 
L 362.739525 256.354478 
L 363.064505 258.426246 
L 363.389484 254.313597 
L 363.714464 257.081288 
L 364.039443 248.861747 
L 364.364423 211.397671 
L 364.689402 213.145975 
L 365.014382 262.727581 
L 365.339361 256.973608 
L 365.664341 253.736445 
L 365.98932 259.479608 
L 366.3143 249.354383 
L 366.639279 260.666624 
L 366.964259 257.245968 
L 367.289238 259.539556 
L 367.614218 263.458042 
L 367.939197 256.03284 
L 368.264177 256.137572 
L 368.589156 253.330992 
L 368.914136 258.597103 
L 369.239115 257.62222 
L 369.564095 262.04682 
L 369.889075 262.934239 
L 370.214054 250.250085 
L 370.539034 256.948477 
L 370.864013 247.139977 
L 371.188993 259.132699 
L 371.513972 259.754356 
L 371.838952 246.883481 
L 372.163931 252.537495 
L 372.488911 262.939574 
L 372.81389 202.634531 
L 373.13887 252.231019 
L 373.463849 259.217075 
L 373.788829 261.495359 
L 374.113808 258.933342 
L 374.438788 258.935729 
L 374.763767 215.312366 
L 375.088747 244.519557 
L 375.413726 256.933175 
L 375.738706 257.12116 
L 376.063686 254.345887 
L 376.388665 262.964563 
L 376.713645 234.203258 
L 377.038624 259.166534 
L 377.363604 255.883182 
L 377.688583 261.415476 
L 378.013563 258.403923 
L 378.338542 204.959285 
L 378.663522 248.23279 
L 378.988501 210.575815 
L 379.313481 261.169088 
L 379.63846 256.006586 
L 379.96344 262.031938 
L 380.288419 258.663789 
L 380.613399 259.8348 
L 380.938378 253.827138 
L 381.263358 255.714711 
L 381.588337 244.147939 
L 381.913317 261.958934 
L 382.238296 253.662739 
L 382.563276 254.1141 
L 382.888256 252.760859 
L 383.213235 260.75451 
L 383.538215 254.550158 
L 383.863194 262.757485 
L 384.188174 255.382964 
L 384.513153 200.227366 
L 384.838133 253.250547 
L 385.163112 249.20276 
L 385.488092 170.978479 
L 385.813071 258.13802 
L 386.138051 262.312301 
L 386.46303 252.956426 
L 386.78801 257.690029 
L 387.112989 256.309974 
L 387.437969 257.071321 
L 387.762948 255.538238 
L 388.087928 251.270315 
L 388.412907 264.382525 
L 388.737887 249.229715 
L 389.062867 262.518116 
L 390.037805 252.476846 
L 390.362785 255.556208 
L 390.687764 252.108316 
L 391.012744 245.019353 
L 391.337723 166.415873 
L 391.662703 256.982312 
L 391.987682 254.623162 
L 392.312662 227.647786 
L 392.637641 258.8609 
L 392.962621 256.320363 
L 393.2876 258.597524 
L 393.61258 256.922645 
L 393.937559 255.864229 
L 394.262539 244.655878 
L 394.587518 252.398086 
L 394.912498 253.671864 
L 395.237477 206.10292 
L 395.562457 255.231762 
L 395.887437 251.788503 
L 396.212416 252.242812 
L 396.537396 252.283947 
L 396.862375 249.404503 
L 397.187355 243.97989 
L 397.512334 166.260178 
L 397.837314 248.367005 
L 398.162293 249.93308 
L 398.487273 256.10823 
L 398.487273 256.10823 
" style="fill:none;stroke:#1f77b4;stroke-linecap:square;stroke-width:1.5;"/>
   </g>
   <g id="patch_3">
    <path d="M 57.6 276.48 
L 57.6 41.472 
" style="fill:none;stroke:#000000;stroke-linecap:square;stroke-linejoin:miter;stroke-width:0.8;"/>
   </g>
   <g id="patch_4">
    <path d="M 414.72 276.48 
L 414.72 41.472 
" style="fill:none;stroke:#000000;stroke-linecap:square;stroke-linejoin:miter;stroke-width:0.8;"/>
   </g>
   <g id="patch_5">
    <path d="M 57.6 276.48 
L 414.72 276.48 
" style="fill:none;stroke:#000000;stroke-linecap:square;stroke-linejoin:miter;stroke-width:0.8;"/>
   </g>
   <g id="patch_6">
    <path d="M 57.6 41.472 
L 414.72 41.472 
" style="fill:none;stroke:#000000;stroke-linecap:square;stroke-linejoin:miter;stroke-width:0.8;"/>
   </g>
   <g id="text_17">
    <!-- https://github.com/AllexVeldman/uptime -->
    <g transform="translate(114.774375 35.472)scale(0.12 -0.12)">
     <defs>
      <path d="M 54.890625 33.015625 
L 54.890625 0 
L 45.90625 0 
L 45.90625 32.71875 
Q 45.90625 40.484375 42.875 44.328125 
Q 39.84375 48.1875 33.796875 48.1875 
Q 26.515625 48.1875 22.3125 43.546875 
Q 18.109375 38.921875 18.109375 30.90625 
L 18.109375 0 
L 9.078125 0 
L 9.078125 75.984375 
L 18.109375 75.984375 
L 18.109375 46.1875 
Q 21.34375 51.125 25.703125 53.5625 
Q 30.078125 56 35.796875 56 
Q 45.21875 56 50.046875 50.171875 
Q 54.890625 44.34375 54.890625 33.015625 
z
" id="DejaVuSans-104"/>
      <path d="M 25.390625 72.90625 
L 33.6875 72.90625 
L 8.296875 -9.28125 
L 0 -9.28125 
z
" id="DejaVuSans-47"/>
      <path d="M 45.40625 27.984375 
Q 45.40625 37.75 41.375 43.109375 
Q 37.359375 48.484375 30.078125 48.484375 
Q 22.859375 48.484375 18.828125 43.109375 
Q 14.796875 37.75 14.796875 27.984375 
Q 14.796875 18.265625 18.828125 12.890625 
Q 22.859375 7.515625 30.078125 7.515625 
Q 37.359375 7.515625 41.375 12.890625 
Q 45.40625 18.265625 45.40625 27.984375 
z
M 54.390625 6.78125 
Q 54.390625 -7.171875 48.1875 -13.984375 
Q 42 -20.796875 29.203125 -20.796875 
Q 24.46875 -20.796875 20.265625 -20.09375 
Q 16.0625 -19.390625 12.109375 -17.921875 
L 12.109375 -9.1875 
Q 16.0625 -11.328125 19.921875 -12.34375 
Q 23.78125 -13.375 27.78125 -13.375 
Q 36.625 -13.375 41.015625 -8.765625 
Q 45.40625 -4.15625 45.40625 5.171875 
L 45.40625 9.625 
Q 42.625 4.78125 38.28125 2.390625 
Q 33.9375 0 27.875 0 
Q 17.828125 0 11.671875 7.65625 
Q 5.515625 15.328125 5.515625 27.984375 
Q 5.515625 40.671875 11.671875 48.328125 
Q 17.828125 56 27.875 56 
Q 33.9375 56 38.28125 53.609375 
Q 42.625 51.21875 45.40625 46.390625 
L 45.40625 54.6875 
L 54.390625 54.6875 
z
" id="DejaVuSans-103"/>
      <path d="M 8.5 21.578125 
L 8.5 54.6875 
L 17.484375 54.6875 
L 17.484375 21.921875 
Q 17.484375 14.15625 20.5 10.265625 
Q 23.53125 6.390625 29.59375 6.390625 
Q 36.859375 6.390625 41.078125 11.03125 
Q 45.3125 15.671875 45.3125 23.6875 
L 45.3125 54.6875 
L 54.296875 54.6875 
L 54.296875 0 
L 45.3125 0 
L 45.3125 8.40625 
Q 42.046875 3.421875 37.71875 1 
Q 33.40625 -1.421875 27.6875 -1.421875 
Q 18.265625 -1.421875 13.375 4.4375 
Q 8.5 10.296875 8.5 21.578125 
z
M 31.109375 56 
z
" id="DejaVuSans-117"/>
      <path d="M 48.6875 27.296875 
Q 48.6875 37.203125 44.609375 42.84375 
Q 40.53125 48.484375 33.40625 48.484375 
Q 26.265625 48.484375 22.1875 42.84375 
Q 18.109375 37.203125 18.109375 27.296875 
Q 18.109375 17.390625 22.1875 11.75 
Q 26.265625 6.109375 33.40625 6.109375 
Q 40.53125 6.109375 44.609375 11.75 
Q 48.6875 17.390625 48.6875 27.296875 
z
M 18.109375 46.390625 
Q 20.953125 51.265625 25.265625 53.625 
Q 29.59375 56 35.59375 56 
Q 45.5625 56 51.78125 48.09375 
Q 58.015625 40.1875 58.015625 27.296875 
Q 58.015625 14.40625 51.78125 6.484375 
Q 45.5625 -1.421875 35.59375 -1.421875 
Q 29.59375 -1.421875 25.265625 0.953125 
Q 20.953125 3.328125 18.109375 8.203125 
L 18.109375 0 
L 9.078125 0 
L 9.078125 75.984375 
L 18.109375 75.984375 
z
" id="DejaVuSans-98"/>
      <path d="M 48.78125 52.59375 
L 48.78125 44.1875 
Q 44.96875 46.296875 41.140625 47.34375 
Q 37.3125 48.390625 33.40625 48.390625 
Q 24.65625 48.390625 19.8125 42.84375 
Q 14.984375 37.3125 14.984375 27.296875 
Q 14.984375 17.28125 19.8125 11.734375 
Q 24.65625 6.203125 33.40625 6.203125 
Q 37.3125 6.203125 41.140625 7.25 
Q 44.96875 8.296875 48.78125 10.40625 
L 48.78125 2.09375 
Q 45.015625 0.34375 40.984375 -0.53125 
Q 36.96875 -1.421875 32.421875 -1.421875 
Q 20.0625 -1.421875 12.78125 6.34375 
Q 5.515625 14.109375 5.515625 27.296875 
Q 5.515625 40.671875 12.859375 48.328125 
Q 20.21875 56 33.015625 56 
Q 37.15625 56 41.109375 55.140625 
Q 45.0625 54.296875 48.78125 52.59375 
z
" id="DejaVuSans-99"/>
      <path d="M 34.1875 63.1875 
L 20.796875 26.90625 
L 47.609375 26.90625 
z
M 28.609375 72.90625 
L 39.796875 72.90625 
L 67.578125 0 
L 57.328125 0 
L 50.6875 18.703125 
L 17.828125 18.703125 
L 11.1875 0 
L 0.78125 0 
z
" id="DejaVuSans-65"/>
      <path d="M 9.421875 75.984375 
L 18.40625 75.984375 
L 18.40625 0 
L 9.421875 0 
z
" id="DejaVuSans-108"/>
      <path d="M 54.890625 54.6875 
L 35.109375 28.078125 
L 55.90625 0 
L 45.3125 0 
L 29.390625 21.484375 
L 13.484375 0 
L 2.875 0 
L 24.125 28.609375 
L 4.6875 54.6875 
L 15.28125 54.6875 
L 29.78125 35.203125 
L 44.28125 54.6875 
z
" id="DejaVuSans-120"/>
      <path d="M 28.609375 0 
L 0.78125 72.90625 
L 11.078125 72.90625 
L 34.1875 11.53125 
L 57.328125 72.90625 
L 67.578125 72.90625 
L 39.796875 0 
z
" id="DejaVuSans-86"/>
      <path d="M 45.40625 46.390625 
L 45.40625 75.984375 
L 54.390625 75.984375 
L 54.390625 0 
L 45.40625 0 
L 45.40625 8.203125 
Q 42.578125 3.328125 38.25 0.953125 
Q 33.9375 -1.421875 27.875 -1.421875 
Q 17.96875 -1.421875 11.734375 6.484375 
Q 5.515625 14.40625 5.515625 27.296875 
Q 5.515625 40.1875 11.734375 48.09375 
Q 17.96875 56 27.875 56 
Q 33.9375 56 38.25 53.625 
Q 42.578125 51.265625 45.40625 46.390625 
z
M 14.796875 27.296875 
Q 14.796875 17.390625 18.875 11.75 
Q 22.953125 6.109375 30.078125 6.109375 
Q 37.203125 6.109375 41.296875 11.75 
Q 45.40625 17.390625 45.40625 27.296875 
Q 45.40625 37.203125 41.296875 42.84375 
Q 37.203125 48.484375 30.078125 48.484375 
Q 22.953125 48.484375 18.875 42.84375 
Q 14.796875 37.203125 14.796875 27.296875 
z
" id="DejaVuSans-100"/>
      <path d="M 34.28125 27.484375 
Q 23.390625 27.484375 19.1875 25 
Q 14.984375 22.515625 14.984375 16.5 
Q 14.984375 11.71875 18.140625 8.90625 
Q 21.296875 6.109375 26.703125 6.109375 
Q 34.1875 6.109375 38.703125 11.40625 
Q 43.21875 16.703125 43.21875 25.484375 
L 43.21875 27.484375 
z
M 52.203125 31.203125 
L 52.203125 0 
L 43.21875 0 
L 43.21875 8.296875 
Q 40.140625 3.328125 35.546875 0.953125 
Q 30.953125 -1.421875 24.3125 -1.421875 
Q 15.921875 -1.421875 10.953125 3.296875 
Q 6 8.015625 6 15.921875 
Q 6 25.140625 12.171875 29.828125 
Q 18.359375 34.515625 30.609375 34.515625 
L 43.21875 34.515625 
L 43.21875 35.40625 
Q 43.21875 41.609375 39.140625 45 
Q 35.0625 48.390625 27.6875 48.390625 
Q 23 48.390625 18.546875 47.265625 
Q 14.109375 46.140625 10.015625 43.890625 
L 10.015625 52.203125 
Q 14.9375 54.109375 19.578125 55.046875 
Q 24.21875 56 28.609375 56 
Q 40.484375 56 46.34375 49.84375 
Q 52.203125 43.703125 52.203125 31.203125 
z
" id="DejaVuSans-97"/>
     </defs>
     <use xlink:href="#DejaVuSans-104"/>
     <use x="63.378906" xlink:href="#DejaVuSans-116"/>
     <use x="102.587891" xlink:href="#DejaVuSans-116"/>
     <use x="141.796875" xlink:href="#DejaVuSans-112"/>
     <use x="205.273438" xlink:href="#DejaVuSans-115"/>
     <use x="257.373047" xlink:href="#DejaVuSans-58"/>
     <use x="291.064453" xlink:href="#DejaVuSans-47"/>
     <use x="324.755859" xlink:href="#DejaVuSans-47"/>
     <use x="358.447266" xlink:href="#DejaVuSans-103"/>
     <use x="421.923828" xlink:href="#DejaVuSans-105"/>
     <use x="449.707031" xlink:href="#DejaVuSans-116"/>
     <use x="488.916016" xlink:href="#DejaVuSans-104"/>
     <use x="552.294922" xlink:href="#DejaVuSans-117"/>
     <use x="615.673828" xlink:href="#DejaVuSans-98"/>
     <use x="679.150391" xlink:href="#DejaVuSans-46"/>
     <use x="710.9375" xlink:href="#DejaVuSans-99"/>
     <use x="765.917969" xlink:href="#DejaVuSans-111"/>
     <use x="827.099609" xlink:href="#DejaVuSans-109"/>
     <use x="924.511719" xlink:href="#DejaVuSans-47"/>
     <use x="958.203125" xlink:href="#DejaVuSans-65"/>
     <use x="1026.611328" xlink:href="#DejaVuSans-108"/>
     <use x="1054.394531" xlink:href="#DejaVuSans-108"/>
     <use x="1082.177734" xlink:href="#DejaVuSans-101"/>
     <use x="1141.951172" xlink:href="#DejaVuSans-120"/>
     <use x="1201.130859" xlink:href="#DejaVuSans-86"/>
     <use x="1261.789062" xlink:href="#DejaVuSans-101"/>
     <use x="1323.3125" xlink:href="#DejaVuSans-108"/>
     <use x="1351.095703" xlink:href="#DejaVuSans-100"/>
     <use x="1414.572266" xlink:href="#DejaVuSans-109"/>
     <use x="1511.984375" xlink:href="#DejaVuSans-97"/>
     <use x="1573.263672" xlink:href="#DejaVuSans-110"/>
     <use x="1636.642578" xlink:href="#DejaVuSans-47"/>
     <use x="1670.333984" xlink:href="#DejaVuSans-117"/>
     <use x="1733.712891" xlink:href="#DejaVuSans-112"/>
     <use x="1797.189453" xlink:href="#DejaVuSans-116"/>
     <use x="1836.398438" xlink:href="#DejaVuSans-105"/>
     <use x="1864.181641" xlink:href="#DejaVuSans-109"/>
     <use x="1961.59375" xlink:href="#DejaVuSans-101"/>
    </g>
   </g>
  </g>
  <g id="axes_2">
   <g id="matplotlib.axis_3">
    <g id="ytick_9">
     <g id="line2d_17">
      <defs>
       <path d="M 0 0 
L 3.5 0 
" id="m1b0663c89c" style="stroke:#000000;stroke-width:0.8;"/>
      </defs>
      <g>
       <use style="stroke:#000000;stroke-width:0.8;" x="414.72" xlink:href="#m1b0663c89c" y="265.797818"/>
      </g>
     </g>
     <g id="text_18">
      <!-- 190.0 -->
      <g transform="translate(421.72 269.597037)scale(0.1 -0.1)">
       <use xlink:href="#DejaVuSans-49"/>
       <use x="63.623047" xlink:href="#DejaVuSans-57"/>
       <use x="127.246094" xlink:href="#DejaVuSans-48"/>
       <use x="190.869141" xlink:href="#DejaVuSans-46"/>
       <use x="222.65625" xlink:href="#DejaVuSans-48"/>
      </g>
     </g>
    </g>
    <g id="ytick_10">
     <g id="line2d_18">
      <g>
       <use style="stroke:#000000;stroke-width:0.8;" x="414.72" xlink:href="#m1b0663c89c" y="239.092364"/>
      </g>
     </g>
     <g id="text_19">
      <!-- 192.5 -->
      <g transform="translate(421.72 242.891582)scale(0.1 -0.1)">
       <use xlink:href="#DejaVuSans-49"/>
       <use x="63.623047" xlink:href="#DejaVuSans-57"/>
       <use x="127.246094" xlink:href="#DejaVuSans-50"/>
       <use x="190.869141" xlink:href="#DejaVuSans-46"/>
       <use x="222.65625" xlink:href="#DejaVuSans-53"/>
      </g>
     </g>
    </g>
    <g id="ytick_11">
     <g id="line2d_19">
      <g>
       <use style="stroke:#000000;stroke-width:0.8;" x="414.72" xlink:href="#m1b0663c89c" y="212.386909"/>
      </g>
     </g>
     <g id="text_20">
      <!-- 195.0 -->
      <g transform="translate(421.72 216.186128)scale(0.1 -0.1)">
       <use xlink:href="#DejaVuSans-49"/>
       <use x="63.623047" xlink:href="#DejaVuSans-57"/>
       <use x="127.246094" xlink:href="#DejaVuSans-53"/>
       <use x="190.869141" xlink:href="#DejaVuSans-46"/>
       <use x="222.65625" xlink:href="#DejaVuSans-48"/>
      </g>
     </g>
    </g>
    <g id="ytick_12">
     <g id="line2d_20">
      <g>
       <use style="stroke:#000000;stroke-width:0.8;" x="414.72" xlink:href="#m1b0663c89c" y="185.681455"/>
      </g>
     </g>
     <g id="text_21">
      <!-- 197.5 -->
      <g transform="translate(421.72 189.480673)scale(0.1 -0.1)">
       <use xlink:href="#DejaVuSans-49"/>
       <use x="63.623047" xlink:href="#DejaVuSans-57"/>
       <use x="127.246094" xlink:href="#DejaVuSans-55"/>
       <use x="190.869141" xlink:href="#DejaVuSans-46"/>
       <use x="222.65625" xlink:href="#DejaVuSans-53"/>
      </g>
     </g>
    </g>
    <g id="ytick_13">
     <g id="line2d_21">
      <g>
       <use style="stroke:#000000;stroke-width:0.8;" x="414.72" xlink:href="#m1b0663c89c" y="158.976"/>
      </g>
     </g>
     <g id="text_22">
      <!-- 200.0 -->
      <g transform="translate(421.72 162.775219)scale(0.1 -0.1)">
       <use xlink:href="#DejaVuSans-50"/>
       <use x="63.623047" xlink:href="#DejaVuSans-48"/>
       <use x="127.246094" xlink:href="#DejaVuSans-48"/>
       <use x="190.869141" xlink:href="#DejaVuSans-46"/>
       <use x="222.65625" xlink:href="#DejaVuSans-48"/>
      </g>
     </g>
    </g>
    <g id="ytick_14">
     <g id="line2d_22">
      <g>
       <use style="stroke:#000000;stroke-width:0.8;" x="414.72" xlink:href="#m1b0663c89c" y="132.270545"/>
      </g>
     </g>
     <g id="text_23">
      <!-- 202.5 -->
      <g transform="translate(421.72 136.069764)scale(0.1 -0.1)">
       <use xlink:href="#DejaVuSans-50"/>
       <use x="63.623047" xlink:href="#DejaVuSans-48"/>
       <use x="127.246094" xlink:href="#DejaVuSans-50"/>
       <use x="190.869141" xlink:href="#DejaVuSans-46"/>
       <use x="222.65625" xlink:href="#DejaVuSans-53"/>
      </g>
     </g>
    </g>
    <g id="ytick_15">
     <g id="line2d_23">
      <g>
       <use style="stroke:#000000;stroke-width:0.8;" x="414.72" xlink:href="#m1b0663c89c" y="105.565091"/>
      </g>
     </g>
     <g id="text_24">
      <!-- 205.0 -->
      <g transform="translate(421.72 109.36431)scale(0.1 -0.1)">
       <use xlink:href="#DejaVuSans-50"/>
       <use x="63.623047" xlink:href="#DejaVuSans-48"/>
       <use x="127.246094" xlink:href="#DejaVuSans-53"/>
       <use x="190.869141" xlink:href="#DejaVuSans-46"/>
       <use x="222.65625" xlink:href="#DejaVuSans-48"/>
      </g>
     </g>
    </g>
    <g id="ytick_16">
     <g id="line2d_24">
      <g>
       <use style="stroke:#000000;stroke-width:0.8;" x="414.72" xlink:href="#m1b0663c89c" y="78.859636"/>
      </g>
     </g>
     <g id="text_25">
      <!-- 207.5 -->
      <g transform="translate(421.72 82.658855)scale(0.1 -0.1)">
       <use xlink:href="#DejaVuSans-50"/>
       <use x="63.623047" xlink:href="#DejaVuSans-48"/>
       <use x="127.246094" xlink:href="#DejaVuSans-55"/>
       <use x="190.869141" xlink:href="#DejaVuSans-46"/>
       <use x="222.65625" xlink:href="#DejaVuSans-53"/>
      </g>
     </g>
    </g>
    <g id="ytick_17">
     <g id="line2d_25">
      <g>
       <use style="stroke:#000000;stroke-width:0.8;" x="414.72" xlink:href="#m1b0663c89c" y="52.154182"/>
      </g>
     </g>
     <g id="text_26">
      <!-- 210.0 -->
      <g transform="translate(421.72 55.953401)scale(0.1 -0.1)">
       <use xlink:href="#DejaVuSans-50"/>
       <use x="63.623047" xlink:href="#DejaVuSans-49"/>
       <use x="127.246094" xlink:href="#DejaVuSans-48"/>
       <use x="190.869141" xlink:href="#DejaVuSans-46"/>
       <use x="222.65625" xlink:href="#DejaVuSans-48"/>
      </g>
     </g>
    </g>
    <g id="text_27">
     <!-- Status code -->
     <g transform="translate(461.946563 188.556469)rotate(-90)scale(0.1 -0.1)">
      <defs>
       <path d="M 53.515625 70.515625 
L 53.515625 60.890625 
Q 47.90625 63.578125 42.921875 64.890625 
Q 37.9375 66.21875 33.296875 66.21875 
Q 25.25 66.21875 20.875 63.09375 
Q 16.5 59.96875 16.5 54.203125 
Q 16.5 49.359375 19.40625 46.890625 
Q 22.3125 44.4375 30.421875 42.921875 
L 36.375 41.703125 
Q 47.40625 39.59375 52.65625 34.296875 
Q 57.90625 29 57.90625 20.125 
Q 57.90625 9.515625 50.796875 4.046875 
Q 43.703125 -1.421875 29.984375 -1.421875 
Q 24.8125 -1.421875 18.96875 -0.25 
Q 13.140625 0.921875 6.890625 3.21875 
L 6.890625 13.375 
Q 12.890625 10.015625 18.65625 8.296875 
Q 24.421875 6.59375 29.984375 6.59375 
Q 38.421875 6.59375 43.015625 9.90625 
Q 47.609375 13.234375 47.609375 19.390625 
Q 47.609375 24.75 44.3125 27.78125 
Q 41.015625 30.8125 33.5 32.328125 
L 27.484375 33.5 
Q 16.453125 35.6875 11.515625 40.375 
Q 6.59375 45.0625 6.59375 53.421875 
Q 6.59375 63.09375 13.40625 68.65625 
Q 20.21875 74.21875 32.171875 74.21875 
Q 37.3125 74.21875 42.625 73.28125 
Q 47.953125 72.359375 53.515625 70.515625 
z
" id="DejaVuSans-83"/>
      </defs>
      <use xlink:href="#DejaVuSans-83"/>
      <use x="63.476562" xlink:href="#DejaVuSans-116"/>
      <use x="102.685547" xlink:href="#DejaVuSans-97"/>
      <use x="163.964844" xlink:href="#DejaVuSans-116"/>
      <use x="203.173828" xlink:href="#DejaVuSans-117"/>
      <use x="266.552734" xlink:href="#DejaVuSans-115"/>
      <use x="318.652344" xlink:href="#DejaVuSans-32"/>
      <use x="350.439453" xlink:href="#DejaVuSans-99"/>
      <use x="405.419922" xlink:href="#DejaVuSans-111"/>
      <use x="466.601562" xlink:href="#DejaVuSans-100"/>
      <use x="530.078125" xlink:href="#DejaVuSans-101"/>
     </g>
    </g>
   </g>
   <g id="line2d_26">
    <path clip-path="url(#pea074e7bbd)" d="M 73.832727 158.976 
L 398.487273 158.976 
L 398.487273 158.976 
" style="fill:none;stroke:#008000;stroke-linecap:square;stroke-width:1.5;"/>
   </g>
   <g id="patch_7">
    <path d="M 57.6 276.48 
L 57.6 41.472 
" style="fill:none;stroke:#000000;stroke-linecap:square;stroke-linejoin:miter;stroke-width:0.8;"/>
   </g>
   <g id="patch_8">
    <path d="M 414.72 276.48 
L 414.72 41.472 
" style="fill:none;stroke:#000000;stroke-linecap:square;stroke-linejoin:miter;stroke-width:0.8;"/>
   </g>
   <g id="patch_9">
    <path d="M 57.6 276.48 
L 414.72 276.48 
" style="fill:none;stroke:#000000;stroke-linecap:square;stroke-linejoin:miter;stroke-width:0.8;"/>
   </g>
   <g id="patch_10">
    <path d="M 57.6 41.472 
L 414.72 41.472 
" style="fill:none;stroke:#000000;stroke-linecap:square;stroke-linejoin:miter;stroke-width:0.8;"/>
   </g>
  </g>
 </g>
 <defs>
  <clipPath id="pea074e7bbd">
   <rect height="235.008" width="357.12" x="57.6" y="41.472"/>
  </clipPath>
 </defs>
</svg>
