<?xml version="1.0" encoding="utf-8" standalone="no"?>
<!DOCTYPE svg PUBLIC "-//W3C//DTD SVG 1.1//EN"
  "http://www.w3.org/Graphics/SVG/1.1/DTD/svg11.dtd">
<!-- Created with matplotlib (https://matplotlib.org/) -->
<svg height="345.6pt" version="1.1" viewBox="0 0 460.8 345.6" width="460.8pt" xmlns="http://www.w3.org/2000/svg" xmlns:xlink="http://www.w3.org/1999/xlink">
 <metadata>
  <rdf:RDF xmlns:cc="http://creativecommons.org/ns#" xmlns:dc="http://purl.org/dc/elements/1.1/" xmlns:rdf="http://www.w3.org/1999/02/22-rdf-syntax-ns#">
   <cc:Work>
    <dc:type rdf:resource="http://purl.org/dc/dcmitype/StillImage"/>
    <dc:date>2024-01-13T09:22:32.443021</dc:date>
    <dc:format>image/svg+xml</dc:format>
    <dc:creator>
     <cc:Agent>
      <dc:title>Matplotlib v3.3.3, https://matplotlib.org/</dc:title>
     </cc:Agent>
    </dc:creator>
   </cc:Work>
  </rdf:RDF>
 </metadata>
 <defs>
  <style type="text/css">*{stroke-linecap:butt;stroke-linejoin:round;}</style>
 </defs>
 <g id="figure_1">
  <g id="patch_1">
   <path d="M 0 345.6 
L 460.8 345.6 
L 460.8 0 
L 0 0 
z
" style="fill:#ffffff;"/>
  </g>
  <g id="axes_1">
   <g id="patch_2">
    <path d="M 57.6 276.48 
L 414.72 276.48 
L 414.72 41.472 
L 57.6 41.472 
z
" style="fill:#ffffff;"/>
   </g>
   <g id="matplotlib.axis_1">
    <g id="xtick_1">
     <g id="line2d_1">
      <defs>
       <path d="M 0 0 
L 0 3.5 
" id="m99ced41088" style="stroke:#000000;stroke-width:0.8;"/>
      </defs>
      <g>
       <use style="stroke:#000000;stroke-width:0.8;" x="73.832727" xlink:href="#m99ced41088" y="276.48"/>
      </g>
     </g>
     <g id="text_1">
      <!-- 2024-01-05 22:32:26.860763 -->
      <g transform="translate(-54.997284 363.840127)rotate(-30)scale(0.1 -0.1)">
       <defs>
        <path d="M 19.1875 8.296875 
L 53.609375 8.296875 
L 53.609375 0 
L 7.328125 0 
L 7.328125 8.296875 
Q 12.9375 14.109375 22.625 23.890625 
Q 32.328125 33.6875 34.8125 36.53125 
Q 39.546875 41.84375 41.421875 45.53125 
Q 43.3125 49.21875 43.3125 52.78125 
Q 43.3125 58.59375 39.234375 62.25 
Q 35.15625 65.921875 28.609375 65.921875 
Q 23.96875 65.921875 18.8125 64.3125 
Q 13.671875 62.703125 7.8125 59.421875 
L 7.8125 69.390625 
Q 13.765625 71.78125 18.9375 73 
Q 24.125 74.21875 28.421875 74.21875 
Q 39.75 74.21875 46.484375 68.546875 
Q 53.21875 62.890625 53.21875 53.421875 
Q 53.21875 48.921875 51.53125 44.890625 
Q 49.859375 40.875 45.40625 35.40625 
Q 44.1875 33.984375 37.640625 27.21875 
Q 31.109375 20.453125 19.1875 8.296875 
z
" id="DejaVuSans-50"/>
        <path d="M 31.78125 66.40625 
Q 24.171875 66.40625 20.328125 58.90625 
Q 16.5 51.421875 16.5 36.375 
Q 16.5 21.390625 20.328125 13.890625 
Q 24.171875 6.390625 31.78125 6.390625 
Q 39.453125 6.390625 43.28125 13.890625 
Q 47.125 21.390625 47.125 36.375 
Q 47.125 51.421875 43.28125 58.90625 
Q 39.453125 66.40625 31.78125 66.40625 
z
M 31.78125 74.21875 
Q 44.046875 74.21875 50.515625 64.515625 
Q 56.984375 54.828125 56.984375 36.375 
Q 56.984375 17.96875 50.515625 8.265625 
Q 44.046875 -1.421875 31.78125 -1.421875 
Q 19.53125 -1.421875 13.0625 8.265625 
Q 6.59375 17.96875 6.59375 36.375 
Q 6.59375 54.828125 13.0625 64.515625 
Q 19.53125 74.21875 31.78125 74.21875 
z
" id="DejaVuSans-48"/>
        <path d="M 37.796875 64.3125 
L 12.890625 25.390625 
L 37.796875 25.390625 
z
M 35.203125 72.90625 
L 47.609375 72.90625 
L 47.609375 25.390625 
L 58.015625 25.390625 
L 58.015625 17.1875 
L 47.609375 17.1875 
L 47.609375 0 
L 37.796875 0 
L 37.796875 17.1875 
L 4.890625 17.1875 
L 4.890625 26.703125 
z
" id="DejaVuSans-52"/>
        <path d="M 4.890625 31.390625 
L 31.203125 31.390625 
L 31.203125 23.390625 
L 4.890625 23.390625 
z
" id="DejaVuSans-45"/>
        <path d="M 12.40625 8.296875 
L 28.515625 8.296875 
L 28.515625 63.921875 
L 10.984375 60.40625 
L 10.984375 69.390625 
L 28.421875 72.90625 
L 38.28125 72.90625 
L 38.28125 8.296875 
L 54.390625 8.296875 
L 54.390625 0 
L 12.40625 0 
z
" id="DejaVuSans-49"/>
        <path d="M 10.796875 72.90625 
L 49.515625 72.90625 
L 49.515625 64.59375 
L 19.828125 64.59375 
L 19.828125 46.734375 
Q 21.96875 47.46875 24.109375 47.828125 
Q 26.265625 48.1875 28.421875 48.1875 
Q 40.625 48.1875 47.75 41.5 
Q 54.890625 34.8125 54.890625 23.390625 
Q 54.890625 11.625 47.5625 5.09375 
Q 40.234375 -1.421875 26.90625 -1.421875 
Q 22.3125 -1.421875 17.546875 -0.640625 
Q 12.796875 0.140625 7.71875 1.703125 
L 7.71875 11.625 
Q 12.109375 9.234375 16.796875 8.0625 
Q 21.484375 6.890625 26.703125 6.890625 
Q 35.15625 6.890625 40.078125 11.328125 
Q 45.015625 15.765625 45.015625 23.390625 
Q 45.015625 31 40.078125 35.4375 
Q 35.15625 39.890625 26.703125 39.890625 
Q 22.75 39.890625 18.8125 39.015625 
Q 14.890625 38.140625 10.796875 36.28125 
z
" id="DejaVuSans-53"/>
        <path id="DejaVuSans-32"/>
        <path d="M 11.71875 12.40625 
L 22.015625 12.40625 
L 22.015625 0 
L 11.71875 0 
z
M 11.71875 51.703125 
L 22.015625 51.703125 
L 22.015625 39.3125 
L 11.71875 39.3125 
z
" id="DejaVuSans-58"/>
        <path d="M 40.578125 39.3125 
Q 47.65625 37.796875 51.625 33 
Q 55.609375 28.21875 55.609375 21.1875 
Q 55.609375 10.40625 48.1875 4.484375 
Q 40.765625 -1.421875 27.09375 -1.421875 
Q 22.515625 -1.421875 17.65625 -0.515625 
Q 12.796875 0.390625 7.625 2.203125 
L 7.625 11.71875 
Q 11.71875 9.328125 16.59375 8.109375 
Q 21.484375 6.890625 26.8125 6.890625 
Q 36.078125 6.890625 40.9375 10.546875 
Q 45.796875 14.203125 45.796875 21.1875 
Q 45.796875 27.640625 41.28125 31.265625 
Q 36.765625 34.90625 28.71875 34.90625 
L 20.21875 34.90625 
L 20.21875 43.015625 
L 29.109375 43.015625 
Q 36.375 43.015625 40.234375 45.921875 
Q 44.09375 48.828125 44.09375 54.296875 
Q 44.09375 59.90625 40.109375 62.90625 
Q 36.140625 65.921875 28.71875 65.921875 
Q 24.65625 65.921875 20.015625 65.03125 
Q 15.375 64.15625 9.8125 62.3125 
L 9.8125 71.09375 
Q 15.4375 72.65625 20.34375 73.4375 
Q 25.25 74.21875 29.59375 74.21875 
Q 40.828125 74.21875 47.359375 69.109375 
Q 53.90625 64.015625 53.90625 55.328125 
Q 53.90625 49.265625 50.4375 45.09375 
Q 46.96875 40.921875 40.578125 39.3125 
z
" id="DejaVuSans-51"/>
        <path d="M 33.015625 40.375 
Q 26.375 40.375 22.484375 35.828125 
Q 18.609375 31.296875 18.609375 23.390625 
Q 18.609375 15.53125 22.484375 10.953125 
Q 26.375 6.390625 33.015625 6.390625 
Q 39.65625 6.390625 43.53125 10.953125 
Q 47.40625 15.53125 47.40625 23.390625 
Q 47.40625 31.296875 43.53125 35.828125 
Q 39.65625 40.375 33.015625 40.375 
z
M 52.59375 71.296875 
L 52.59375 62.3125 
Q 48.875 64.0625 45.09375 64.984375 
Q 41.3125 65.921875 37.59375 65.921875 
Q 27.828125 65.921875 22.671875 59.328125 
Q 17.53125 52.734375 16.796875 39.40625 
Q 19.671875 43.65625 24.015625 45.921875 
Q 28.375 48.1875 33.59375 48.1875 
Q 44.578125 48.1875 50.953125 41.515625 
Q 57.328125 34.859375 57.328125 23.390625 
Q 57.328125 12.15625 50.6875 5.359375 
Q 44.046875 -1.421875 33.015625 -1.421875 
Q 20.359375 -1.421875 13.671875 8.265625 
Q 6.984375 17.96875 6.984375 36.375 
Q 6.984375 53.65625 15.1875 63.9375 
Q 23.390625 74.21875 37.203125 74.21875 
Q 40.921875 74.21875 44.703125 73.484375 
Q 48.484375 72.75 52.59375 71.296875 
z
" id="DejaVuSans-54"/>
        <path d="M 10.6875 12.40625 
L 21 12.40625 
L 21 0 
L 10.6875 0 
z
" id="DejaVuSans-46"/>
        <path d="M 31.78125 34.625 
Q 24.75 34.625 20.71875 30.859375 
Q 16.703125 27.09375 16.703125 20.515625 
Q 16.703125 13.921875 20.71875 10.15625 
Q 24.75 6.390625 31.78125 6.390625 
Q 38.8125 6.390625 42.859375 10.171875 
Q 46.921875 13.96875 46.921875 20.515625 
Q 46.921875 27.09375 42.890625 30.859375 
Q 38.875 34.625 31.78125 34.625 
z
M 21.921875 38.8125 
Q 15.578125 40.375 12.03125 44.71875 
Q 8.5 49.078125 8.5 55.328125 
Q 8.5 64.0625 14.71875 69.140625 
Q 20.953125 74.21875 31.78125 74.21875 
Q 42.671875 74.21875 48.875 69.140625 
Q 55.078125 64.0625 55.078125 55.328125 
Q 55.078125 49.078125 51.53125 44.71875 
Q 48 40.375 41.703125 38.8125 
Q 48.828125 37.15625 52.796875 32.3125 
Q 56.78125 27.484375 56.78125 20.515625 
Q 56.78125 9.90625 50.3125 4.234375 
Q 43.84375 -1.421875 31.78125 -1.421875 
Q 19.734375 -1.421875 13.25 4.234375 
Q 6.78125 9.90625 6.78125 20.515625 
Q 6.78125 27.484375 10.78125 32.3125 
Q 14.796875 37.15625 21.921875 38.8125 
z
M 18.3125 54.390625 
Q 18.3125 48.734375 21.84375 45.5625 
Q 25.390625 42.390625 31.78125 42.390625 
Q 38.140625 42.390625 41.71875 45.5625 
Q 45.3125 48.734375 45.3125 54.390625 
Q 45.3125 60.0625 41.71875 63.234375 
Q 38.140625 66.40625 31.78125 66.40625 
Q 25.390625 66.40625 21.84375 63.234375 
Q 18.3125 60.0625 18.3125 54.390625 
z
" id="DejaVuSans-56"/>
        <path d="M 8.203125 72.90625 
L 55.078125 72.90625 
L 55.078125 68.703125 
L 28.609375 0 
L 18.3125 0 
L 43.21875 64.59375 
L 8.203125 64.59375 
z
" id="DejaVuSans-55"/>
       </defs>
       <use xlink:href="#DejaVuSans-50"/>
       <use x="63.623047" xlink:href="#DejaVuSans-48"/>
       <use x="127.246094" xlink:href="#DejaVuSans-50"/>
       <use x="190.869141" xlink:href="#DejaVuSans-52"/>
       <use x="254.492188" xlink:href="#DejaVuSans-45"/>
       <use x="290.576172" xlink:href="#DejaVuSans-48"/>
       <use x="354.199219" xlink:href="#DejaVuSans-49"/>
       <use x="417.822266" xlink:href="#DejaVuSans-45"/>
       <use x="453.90625" xlink:href="#DejaVuSans-48"/>
       <use x="517.529297" xlink:href="#DejaVuSans-53"/>
       <use x="581.152344" xlink:href="#DejaVuSans-32"/>
       <use x="612.939453" xlink:href="#DejaVuSans-50"/>
       <use x="676.5625" xlink:href="#DejaVuSans-50"/>
       <use x="740.185547" xlink:href="#DejaVuSans-58"/>
       <use x="773.876953" xlink:href="#DejaVuSans-51"/>
       <use x="837.5" xlink:href="#DejaVuSans-50"/>
       <use x="901.123047" xlink:href="#DejaVuSans-58"/>
       <use x="934.814453" xlink:href="#DejaVuSans-50"/>
       <use x="998.4375" xlink:href="#DejaVuSans-54"/>
       <use x="1062.060547" xlink:href="#DejaVuSans-46"/>
       <use x="1093.847656" xlink:href="#DejaVuSans-56"/>
       <use x="1157.470703" xlink:href="#DejaVuSans-54"/>
       <use x="1221.09375" xlink:href="#DejaVuSans-48"/>
       <use x="1284.716797" xlink:href="#DejaVuSans-55"/>
       <use x="1348.339844" xlink:href="#DejaVuSans-54"/>
       <use x="1411.962891" xlink:href="#DejaVuSans-51"/>
      </g>
     </g>
    </g>
    <g id="xtick_2">
     <g id="line2d_2">
      <g>
       <use style="stroke:#000000;stroke-width:0.8;" x="122.579656" xlink:href="#m99ced41088" y="276.48"/>
      </g>
     </g>
     <g id="text_2">
      <!-- 2024-01-07 02:22:08.986982 -->
      <g transform="translate(-6.250355 363.840127)rotate(-30)scale(0.1 -0.1)">
       <defs>
        <path d="M 10.984375 1.515625 
L 10.984375 10.5 
Q 14.703125 8.734375 18.5 7.8125 
Q 22.3125 6.890625 25.984375 6.890625 
Q 35.75 6.890625 40.890625 13.453125 
Q 46.046875 20.015625 46.78125 33.40625 
Q 43.953125 29.203125 39.59375 26.953125 
Q 35.25 24.703125 29.984375 24.703125 
Q 19.046875 24.703125 12.671875 31.3125 
Q 6.296875 37.9375 6.296875 49.421875 
Q 6.296875 60.640625 12.9375 67.421875 
Q 19.578125 74.21875 30.609375 74.21875 
Q 43.265625 74.21875 49.921875 64.515625 
Q 56.59375 54.828125 56.59375 36.375 
Q 56.59375 19.140625 48.40625 8.859375 
Q 40.234375 -1.421875 26.421875 -1.421875 
Q 22.703125 -1.421875 18.890625 -0.6875 
Q 15.09375 0.046875 10.984375 1.515625 
z
M 30.609375 32.421875 
Q 37.25 32.421875 41.125 36.953125 
Q 45.015625 41.5 45.015625 49.421875 
Q 45.015625 57.28125 41.125 61.84375 
Q 37.25 66.40625 30.609375 66.40625 
Q 23.96875 66.40625 20.09375 61.84375 
Q 16.21875 57.28125 16.21875 49.421875 
Q 16.21875 41.5 20.09375 36.953125 
Q 23.96875 32.421875 30.609375 32.421875 
z
" id="DejaVuSans-57"/>
       </defs>
       <use xlink:href="#DejaVuSans-50"/>
       <use x="63.623047" xlink:href="#DejaVuSans-48"/>
       <use x="127.246094" xlink:href="#DejaVuSans-50"/>
       <use x="190.869141" xlink:href="#DejaVuSans-52"/>
       <use x="254.492188" xlink:href="#DejaVuSans-45"/>
       <use x="290.576172" xlink:href="#DejaVuSans-48"/>
       <use x="354.199219" xlink:href="#DejaVuSans-49"/>
       <use x="417.822266" xlink:href="#DejaVuSans-45"/>
       <use x="453.90625" xlink:href="#DejaVuSans-48"/>
       <use x="517.529297" xlink:href="#DejaVuSans-55"/>
       <use x="581.152344" xlink:href="#DejaVuSans-32"/>
       <use x="612.939453" xlink:href="#DejaVuSans-48"/>
       <use x="676.5625" xlink:href="#DejaVuSans-50"/>
       <use x="740.185547" xlink:href="#DejaVuSans-58"/>
       <use x="773.876953" xlink:href="#DejaVuSans-50"/>
       <use x="837.5" xlink:href="#DejaVuSans-50"/>
       <use x="901.123047" xlink:href="#DejaVuSans-58"/>
       <use x="934.814453" xlink:href="#DejaVuSans-48"/>
       <use x="998.4375" xlink:href="#DejaVuSans-56"/>
       <use x="1062.060547" xlink:href="#DejaVuSans-46"/>
       <use x="1093.847656" xlink:href="#DejaVuSans-57"/>
       <use x="1157.470703" xlink:href="#DejaVuSans-56"/>
       <use x="1221.09375" xlink:href="#DejaVuSans-54"/>
       <use x="1284.716797" xlink:href="#DejaVuSans-57"/>
       <use x="1348.339844" xlink:href="#DejaVuSans-56"/>
       <use x="1411.962891" xlink:href="#DejaVuSans-50"/>
      </g>
     </g>
    </g>
    <g id="xtick_3">
     <g id="line2d_3">
      <g>
       <use style="stroke:#000000;stroke-width:0.8;" x="171.326585" xlink:href="#m99ced41088" y="276.48"/>
      </g>
     </g>
     <g id="text_3">
      <!-- 2024-01-08 04:52:06.275766 -->
      <g transform="translate(42.496574 363.840127)rotate(-30)scale(0.1 -0.1)">
       <use xlink:href="#DejaVuSans-50"/>
       <use x="63.623047" xlink:href="#DejaVuSans-48"/>
       <use x="127.246094" xlink:href="#DejaVuSans-50"/>
       <use x="190.869141" xlink:href="#DejaVuSans-52"/>
       <use x="254.492188" xlink:href="#DejaVuSans-45"/>
       <use x="290.576172" xlink:href="#DejaVuSans-48"/>
       <use x="354.199219" xlink:href="#DejaVuSans-49"/>
       <use x="417.822266" xlink:href="#DejaVuSans-45"/>
       <use x="453.90625" xlink:href="#DejaVuSans-48"/>
       <use x="517.529297" xlink:href="#DejaVuSans-56"/>
       <use x="581.152344" xlink:href="#DejaVuSans-32"/>
       <use x="612.939453" xlink:href="#DejaVuSans-48"/>
       <use x="676.5625" xlink:href="#DejaVuSans-52"/>
       <use x="740.185547" xlink:href="#DejaVuSans-58"/>
       <use x="773.876953" xlink:href="#DejaVuSans-53"/>
       <use x="837.5" xlink:href="#DejaVuSans-50"/>
       <use x="901.123047" xlink:href="#DejaVuSans-58"/>
       <use x="934.814453" xlink:href="#DejaVuSans-48"/>
       <use x="998.4375" xlink:href="#DejaVuSans-54"/>
       <use x="1062.060547" xlink:href="#DejaVuSans-46"/>
       <use x="1093.847656" xlink:href="#DejaVuSans-50"/>
       <use x="1157.470703" xlink:href="#DejaVuSans-55"/>
       <use x="1221.09375" xlink:href="#DejaVuSans-53"/>
       <use x="1284.716797" xlink:href="#DejaVuSans-55"/>
       <use x="1348.339844" xlink:href="#DejaVuSans-54"/>
       <use x="1411.962891" xlink:href="#DejaVuSans-54"/>
      </g>
     </g>
    </g>
    <g id="xtick_4">
     <g id="line2d_4">
      <g>
       <use style="stroke:#000000;stroke-width:0.8;" x="220.073514" xlink:href="#m99ced41088" y="276.48"/>
      </g>
     </g>
     <g id="text_4">
      <!-- 2024-01-09 07:23:24.911243 -->
      <g transform="translate(91.243502 363.840127)rotate(-30)scale(0.1 -0.1)">
       <use xlink:href="#DejaVuSans-50"/>
       <use x="63.623047" xlink:href="#DejaVuSans-48"/>
       <use x="127.246094" xlink:href="#DejaVuSans-50"/>
       <use x="190.869141" xlink:href="#DejaVuSans-52"/>
       <use x="254.492188" xlink:href="#DejaVuSans-45"/>
       <use x="290.576172" xlink:href="#DejaVuSans-48"/>
       <use x="354.199219" xlink:href="#DejaVuSans-49"/>
       <use x="417.822266" xlink:href="#DejaVuSans-45"/>
       <use x="453.90625" xlink:href="#DejaVuSans-48"/>
       <use x="517.529297" xlink:href="#DejaVuSans-57"/>
       <use x="581.152344" xlink:href="#DejaVuSans-32"/>
       <use x="612.939453" xlink:href="#DejaVuSans-48"/>
       <use x="676.5625" xlink:href="#DejaVuSans-55"/>
       <use x="740.185547" xlink:href="#DejaVuSans-58"/>
       <use x="773.876953" xlink:href="#DejaVuSans-50"/>
       <use x="837.5" xlink:href="#DejaVuSans-51"/>
       <use x="901.123047" xlink:href="#DejaVuSans-58"/>
       <use x="934.814453" xlink:href="#DejaVuSans-50"/>
       <use x="998.4375" xlink:href="#DejaVuSans-52"/>
       <use x="1062.060547" xlink:href="#DejaVuSans-46"/>
       <use x="1093.847656" xlink:href="#DejaVuSans-57"/>
       <use x="1157.470703" xlink:href="#DejaVuSans-49"/>
       <use x="1221.09375" xlink:href="#DejaVuSans-49"/>
       <use x="1284.716797" xlink:href="#DejaVuSans-50"/>
       <use x="1348.339844" xlink:href="#DejaVuSans-52"/>
       <use x="1411.962891" xlink:href="#DejaVuSans-51"/>
      </g>
     </g>
    </g>
    <g id="xtick_5">
     <g id="line2d_5">
      <g>
       <use style="stroke:#000000;stroke-width:0.8;" x="268.820442" xlink:href="#m99ced41088" y="276.48"/>
      </g>
     </g>
     <g id="text_5">
      <!-- 2024-01-10 10:26:15.710646 -->
      <g transform="translate(139.990431 363.840127)rotate(-30)scale(0.1 -0.1)">
       <use xlink:href="#DejaVuSans-50"/>
       <use x="63.623047" xlink:href="#DejaVuSans-48"/>
       <use x="127.246094" xlink:href="#DejaVuSans-50"/>
       <use x="190.869141" xlink:href="#DejaVuSans-52"/>
       <use x="254.492188" xlink:href="#DejaVuSans-45"/>
       <use x="290.576172" xlink:href="#DejaVuSans-48"/>
       <use x="354.199219" xlink:href="#DejaVuSans-49"/>
       <use x="417.822266" xlink:href="#DejaVuSans-45"/>
       <use x="453.90625" xlink:href="#DejaVuSans-49"/>
       <use x="517.529297" xlink:href="#DejaVuSans-48"/>
       <use x="581.152344" xlink:href="#DejaVuSans-32"/>
       <use x="612.939453" xlink:href="#DejaVuSans-49"/>
       <use x="676.5625" xlink:href="#DejaVuSans-48"/>
       <use x="740.185547" xlink:href="#DejaVuSans-58"/>
       <use x="773.876953" xlink:href="#DejaVuSans-50"/>
       <use x="837.5" xlink:href="#DejaVuSans-54"/>
       <use x="901.123047" xlink:href="#DejaVuSans-58"/>
       <use x="934.814453" xlink:href="#DejaVuSans-49"/>
       <use x="998.4375" xlink:href="#DejaVuSans-53"/>
       <use x="1062.060547" xlink:href="#DejaVuSans-46"/>
       <use x="1093.847656" xlink:href="#DejaVuSans-55"/>
       <use x="1157.470703" xlink:href="#DejaVuSans-49"/>
       <use x="1221.09375" xlink:href="#DejaVuSans-48"/>
       <use x="1284.716797" xlink:href="#DejaVuSans-54"/>
       <use x="1348.339844" xlink:href="#DejaVuSans-52"/>
       <use x="1411.962891" xlink:href="#DejaVuSans-54"/>
      </g>
     </g>
    </g>
    <g id="xtick_6">
     <g id="line2d_6">
      <g>
       <use style="stroke:#000000;stroke-width:0.8;" x="317.567371" xlink:href="#m99ced41088" y="276.48"/>
      </g>
     </g>
     <g id="text_6">
      <!-- 2024-01-11 13:07:11.882315 -->
      <g transform="translate(188.73736 363.840127)rotate(-30)scale(0.1 -0.1)">
       <use xlink:href="#DejaVuSans-50"/>
       <use x="63.623047" xlink:href="#DejaVuSans-48"/>
       <use x="127.246094" xlink:href="#DejaVuSans-50"/>
       <use x="190.869141" xlink:href="#DejaVuSans-52"/>
       <use x="254.492188" xlink:href="#DejaVuSans-45"/>
       <use x="290.576172" xlink:href="#DejaVuSans-48"/>
       <use x="354.199219" xlink:href="#DejaVuSans-49"/>
       <use x="417.822266" xlink:href="#DejaVuSans-45"/>
       <use x="453.90625" xlink:href="#DejaVuSans-49"/>
       <use x="517.529297" xlink:href="#DejaVuSans-49"/>
       <use x="581.152344" xlink:href="#DejaVuSans-32"/>
       <use x="612.939453" xlink:href="#DejaVuSans-49"/>
       <use x="676.5625" xlink:href="#DejaVuSans-51"/>
       <use x="740.185547" xlink:href="#DejaVuSans-58"/>
       <use x="773.876953" xlink:href="#DejaVuSans-48"/>
       <use x="837.5" xlink:href="#DejaVuSans-55"/>
       <use x="901.123047" xlink:href="#DejaVuSans-58"/>
       <use x="934.814453" xlink:href="#DejaVuSans-49"/>
       <use x="998.4375" xlink:href="#DejaVuSans-49"/>
       <use x="1062.060547" xlink:href="#DejaVuSans-46"/>
       <use x="1093.847656" xlink:href="#DejaVuSans-56"/>
       <use x="1157.470703" xlink:href="#DejaVuSans-56"/>
       <use x="1221.09375" xlink:href="#DejaVuSans-50"/>
       <use x="1284.716797" xlink:href="#DejaVuSans-51"/>
       <use x="1348.339844" xlink:href="#DejaVuSans-49"/>
       <use x="1411.962891" xlink:href="#DejaVuSans-53"/>
      </g>
     </g>
    </g>
    <g id="xtick_7">
     <g id="line2d_7">
      <g>
       <use style="stroke:#000000;stroke-width:0.8;" x="366.3143" xlink:href="#m99ced41088" y="276.48"/>
      </g>
     </g>
     <g id="text_7">
      <!-- 2024-01-12 15:32:13.485667 -->
      <g transform="translate(237.484289 363.840127)rotate(-30)scale(0.1 -0.1)">
       <use xlink:href="#DejaVuSans-50"/>
       <use x="63.623047" xlink:href="#DejaVuSans-48"/>
       <use x="127.246094" xlink:href="#DejaVuSans-50"/>
       <use x="190.869141" xlink:href="#DejaVuSans-52"/>
       <use x="254.492188" xlink:href="#DejaVuSans-45"/>
       <use x="290.576172" xlink:href="#DejaVuSans-48"/>
       <use x="354.199219" xlink:href="#DejaVuSans-49"/>
       <use x="417.822266" xlink:href="#DejaVuSans-45"/>
       <use x="453.90625" xlink:href="#DejaVuSans-49"/>
       <use x="517.529297" xlink:href="#DejaVuSans-50"/>
       <use x="581.152344" xlink:href="#DejaVuSans-32"/>
       <use x="612.939453" xlink:href="#DejaVuSans-49"/>
       <use x="676.5625" xlink:href="#DejaVuSans-53"/>
       <use x="740.185547" xlink:href="#DejaVuSans-58"/>
       <use x="773.876953" xlink:href="#DejaVuSans-51"/>
       <use x="837.5" xlink:href="#DejaVuSans-50"/>
       <use x="901.123047" xlink:href="#DejaVuSans-58"/>
       <use x="934.814453" xlink:href="#DejaVuSans-49"/>
       <use x="998.4375" xlink:href="#DejaVuSans-51"/>
       <use x="1062.060547" xlink:href="#DejaVuSans-46"/>
       <use x="1093.847656" xlink:href="#DejaVuSans-52"/>
       <use x="1157.470703" xlink:href="#DejaVuSans-56"/>
       <use x="1221.09375" xlink:href="#DejaVuSans-53"/>
       <use x="1284.716797" xlink:href="#DejaVuSans-54"/>
       <use x="1348.339844" xlink:href="#DejaVuSans-54"/>
       <use x="1411.962891" xlink:href="#DejaVuSans-55"/>
      </g>
     </g>
    </g>
   </g>
   <g id="matplotlib.axis_2">
    <g id="ytick_1">
     <g id="line2d_8">
      <defs>
       <path d="M 0 0 
L -3.5 0 
" id="m1551f4a899" style="stroke:#000000;stroke-width:0.8;"/>
      </defs>
      <g>
       <use style="stroke:#000000;stroke-width:0.8;" x="57.6" xlink:href="#m1551f4a899" y="250.402087"/>
      </g>
     </g>
     <g id="text_8">
      <!-- 0.4 -->
      <g transform="translate(34.696875 254.201305)scale(0.1 -0.1)">
       <use xlink:href="#DejaVuSans-48"/>
       <use x="63.623047" xlink:href="#DejaVuSans-46"/>
       <use x="95.410156" xlink:href="#DejaVuSans-52"/>
      </g>
     </g>
    </g>
    <g id="ytick_2">
     <g id="line2d_9">
      <g>
       <use style="stroke:#000000;stroke-width:0.8;" x="57.6" xlink:href="#m1551f4a899" y="223.756884"/>
      </g>
     </g>
     <g id="text_9">
      <!-- 0.6 -->
      <g transform="translate(34.696875 227.556102)scale(0.1 -0.1)">
       <use xlink:href="#DejaVuSans-48"/>
       <use x="63.623047" xlink:href="#DejaVuSans-46"/>
       <use x="95.410156" xlink:href="#DejaVuSans-54"/>
      </g>
     </g>
    </g>
    <g id="ytick_3">
     <g id="line2d_10">
      <g>
       <use style="stroke:#000000;stroke-width:0.8;" x="57.6" xlink:href="#m1551f4a899" y="197.11168"/>
      </g>
     </g>
     <g id="text_10">
      <!-- 0.8 -->
      <g transform="translate(34.696875 200.910899)scale(0.1 -0.1)">
       <use xlink:href="#DejaVuSans-48"/>
       <use x="63.623047" xlink:href="#DejaVuSans-46"/>
       <use x="95.410156" xlink:href="#DejaVuSans-56"/>
      </g>
     </g>
    </g>
    <g id="ytick_4">
     <g id="line2d_11">
      <g>
       <use style="stroke:#000000;stroke-width:0.8;" x="57.6" xlink:href="#m1551f4a899" y="170.466477"/>
      </g>
     </g>
     <g id="text_11">
      <!-- 1.0 -->
      <g transform="translate(34.696875 174.265696)scale(0.1 -0.1)">
       <use xlink:href="#DejaVuSans-49"/>
       <use x="63.623047" xlink:href="#DejaVuSans-46"/>
       <use x="95.410156" xlink:href="#DejaVuSans-48"/>
      </g>
     </g>
    </g>
    <g id="ytick_5">
     <g id="line2d_12">
      <g>
       <use style="stroke:#000000;stroke-width:0.8;" x="57.6" xlink:href="#m1551f4a899" y="143.821274"/>
      </g>
     </g>
     <g id="text_12">
      <!-- 1.2 -->
      <g transform="translate(34.696875 147.620493)scale(0.1 -0.1)">
       <use xlink:href="#DejaVuSans-49"/>
       <use x="63.623047" xlink:href="#DejaVuSans-46"/>
       <use x="95.410156" xlink:href="#DejaVuSans-50"/>
      </g>
     </g>
    </g>
    <g id="ytick_6">
     <g id="line2d_13">
      <g>
       <use style="stroke:#000000;stroke-width:0.8;" x="57.6" xlink:href="#m1551f4a899" y="117.176071"/>
      </g>
     </g>
     <g id="text_13">
      <!-- 1.4 -->
      <g transform="translate(34.696875 120.97529)scale(0.1 -0.1)">
       <use xlink:href="#DejaVuSans-49"/>
       <use x="63.623047" xlink:href="#DejaVuSans-46"/>
       <use x="95.410156" xlink:href="#DejaVuSans-52"/>
      </g>
     </g>
    </g>
    <g id="ytick_7">
     <g id="line2d_14">
      <g>
       <use style="stroke:#000000;stroke-width:0.8;" x="57.6" xlink:href="#m1551f4a899" y="90.530868"/>
      </g>
     </g>
     <g id="text_14">
      <!-- 1.6 -->
      <g transform="translate(34.696875 94.330087)scale(0.1 -0.1)">
       <use xlink:href="#DejaVuSans-49"/>
       <use x="63.623047" xlink:href="#DejaVuSans-46"/>
       <use x="95.410156" xlink:href="#DejaVuSans-54"/>
      </g>
     </g>
    </g>
    <g id="ytick_8">
     <g id="line2d_15">
      <g>
       <use style="stroke:#000000;stroke-width:0.8;" x="57.6" xlink:href="#m1551f4a899" y="63.885665"/>
      </g>
     </g>
     <g id="text_15">
      <!-- 1.8 -->
      <g transform="translate(34.696875 67.684884)scale(0.1 -0.1)">
       <use xlink:href="#DejaVuSans-49"/>
       <use x="63.623047" xlink:href="#DejaVuSans-46"/>
       <use x="95.410156" xlink:href="#DejaVuSans-56"/>
      </g>
     </g>
    </g>
    <g id="text_16">
     <!-- Response time [s] -->
     <g transform="translate(28.617187 203.970531)rotate(-90)scale(0.1 -0.1)">
      <defs>
       <path d="M 44.390625 34.1875 
Q 47.5625 33.109375 50.5625 29.59375 
Q 53.5625 26.078125 56.59375 19.921875 
L 66.609375 0 
L 56 0 
L 46.6875 18.703125 
Q 43.0625 26.03125 39.671875 28.421875 
Q 36.28125 30.8125 30.421875 30.8125 
L 19.671875 30.8125 
L 19.671875 0 
L 9.8125 0 
L 9.8125 72.90625 
L 32.078125 72.90625 
Q 44.578125 72.90625 50.734375 67.671875 
Q 56.890625 62.453125 56.890625 51.90625 
Q 56.890625 45.015625 53.6875 40.46875 
Q 50.484375 35.9375 44.390625 34.1875 
z
M 19.671875 64.796875 
L 19.671875 38.921875 
L 32.078125 38.921875 
Q 39.203125 38.921875 42.84375 42.21875 
Q 46.484375 45.515625 46.484375 51.90625 
Q 46.484375 58.296875 42.84375 61.546875 
Q 39.203125 64.796875 32.078125 64.796875 
z
" id="DejaVuSans-82"/>
       <path d="M 56.203125 29.59375 
L 56.203125 25.203125 
L 14.890625 25.203125 
Q 15.484375 15.921875 20.484375 11.0625 
Q 25.484375 6.203125 34.421875 6.203125 
Q 39.59375 6.203125 44.453125 7.46875 
Q 49.3125 8.734375 54.109375 11.28125 
L 54.109375 2.78125 
Q 49.265625 0.734375 44.1875 -0.34375 
Q 39.109375 -1.421875 33.890625 -1.421875 
Q 20.796875 -1.421875 13.15625 6.1875 
Q 5.515625 13.8125 5.515625 26.8125 
Q 5.515625 40.234375 12.765625 48.109375 
Q 20.015625 56 32.328125 56 
Q 43.359375 56 49.78125 48.890625 
Q 56.203125 41.796875 56.203125 29.59375 
z
M 47.21875 32.234375 
Q 47.125 39.59375 43.09375 43.984375 
Q 39.0625 48.390625 32.421875 48.390625 
Q 24.90625 48.390625 20.390625 44.140625 
Q 15.875 39.890625 15.1875 32.171875 
z
" id="DejaVuSans-101"/>
       <path d="M 44.28125 53.078125 
L 44.28125 44.578125 
Q 40.484375 46.53125 36.375 47.5 
Q 32.28125 48.484375 27.875 48.484375 
Q 21.1875 48.484375 17.84375 46.4375 
Q 14.5 44.390625 14.5 40.28125 
Q 14.5 37.15625 16.890625 35.375 
Q 19.28125 33.59375 26.515625 31.984375 
L 29.59375 31.296875 
Q 39.15625 29.25 43.1875 25.515625 
Q 47.21875 21.78125 47.21875 15.09375 
Q 47.21875 7.46875 41.1875 3.015625 
Q 35.15625 -1.421875 24.609375 -1.421875 
Q 20.21875 -1.421875 15.453125 -0.5625 
Q 10.6875 0.296875 5.421875 2 
L 5.421875 11.28125 
Q 10.40625 8.6875 15.234375 7.390625 
Q 20.0625 6.109375 24.8125 6.109375 
Q 31.15625 6.109375 34.5625 8.28125 
Q 37.984375 10.453125 37.984375 14.40625 
Q 37.984375 18.0625 35.515625 20.015625 
Q 33.0625 21.96875 24.703125 23.78125 
L 21.578125 24.515625 
Q 13.234375 26.265625 9.515625 29.90625 
Q 5.8125 33.546875 5.8125 39.890625 
Q 5.8125 47.609375 11.28125 51.796875 
Q 16.75 56 26.8125 56 
Q 31.78125 56 36.171875 55.265625 
Q 40.578125 54.546875 44.28125 53.078125 
z
" id="DejaVuSans-115"/>
       <path d="M 18.109375 8.203125 
L 18.109375 -20.796875 
L 9.078125 -20.796875 
L 9.078125 54.6875 
L 18.109375 54.6875 
L 18.109375 46.390625 
Q 20.953125 51.265625 25.265625 53.625 
Q 29.59375 56 35.59375 56 
Q 45.5625 56 51.78125 48.09375 
Q 58.015625 40.1875 58.015625 27.296875 
Q 58.015625 14.40625 51.78125 6.484375 
Q 45.5625 -1.421875 35.59375 -1.421875 
Q 29.59375 -1.421875 25.265625 0.953125 
Q 20.953125 3.328125 18.109375 8.203125 
z
M 48.6875 27.296875 
Q 48.6875 37.203125 44.609375 42.84375 
Q 40.53125 48.484375 33.40625 48.484375 
Q 26.265625 48.484375 22.1875 42.84375 
Q 18.109375 37.203125 18.109375 27.296875 
Q 18.109375 17.390625 22.1875 11.75 
Q 26.265625 6.109375 33.40625 6.109375 
Q 40.53125 6.109375 44.609375 11.75 
Q 48.6875 17.390625 48.6875 27.296875 
z
" id="DejaVuSans-112"/>
       <path d="M 30.609375 48.390625 
Q 23.390625 48.390625 19.1875 42.75 
Q 14.984375 37.109375 14.984375 27.296875 
Q 14.984375 17.484375 19.15625 11.84375 
Q 23.34375 6.203125 30.609375 6.203125 
Q 37.796875 6.203125 41.984375 11.859375 
Q 46.1875 17.53125 46.1875 27.296875 
Q 46.1875 37.015625 41.984375 42.703125 
Q 37.796875 48.390625 30.609375 48.390625 
z
M 30.609375 56 
Q 42.328125 56 49.015625 48.375 
Q 55.71875 40.765625 55.71875 27.296875 
Q 55.71875 13.875 49.015625 6.21875 
Q 42.328125 -1.421875 30.609375 -1.421875 
Q 18.84375 -1.421875 12.171875 6.21875 
Q 5.515625 13.875 5.515625 27.296875 
Q 5.515625 40.765625 12.171875 48.375 
Q 18.84375 56 30.609375 56 
z
" id="DejaVuSans-111"/>
       <path d="M 54.890625 33.015625 
L 54.890625 0 
L 45.90625 0 
L 45.90625 32.71875 
Q 45.90625 40.484375 42.875 44.328125 
Q 39.84375 48.1875 33.796875 48.1875 
Q 26.515625 48.1875 22.3125 43.546875 
Q 18.109375 38.921875 18.109375 30.90625 
L 18.109375 0 
L 9.078125 0 
L 9.078125 54.6875 
L 18.109375 54.6875 
L 18.109375 46.1875 
Q 21.34375 51.125 25.703125 53.5625 
Q 30.078125 56 35.796875 56 
Q 45.21875 56 50.046875 50.171875 
Q 54.890625 44.34375 54.890625 33.015625 
z
" id="DejaVuSans-110"/>
       <path d="M 18.3125 70.21875 
L 18.3125 54.6875 
L 36.8125 54.6875 
L 36.8125 47.703125 
L 18.3125 47.703125 
L 18.3125 18.015625 
Q 18.3125 11.328125 20.140625 9.421875 
Q 21.96875 7.515625 27.59375 7.515625 
L 36.8125 7.515625 
L 36.8125 0 
L 27.59375 0 
Q 17.1875 0 13.234375 3.875 
Q 9.28125 7.765625 9.28125 18.015625 
L 9.28125 47.703125 
L 2.6875 47.703125 
L 2.6875 54.6875 
L 9.28125 54.6875 
L 9.28125 70.21875 
z
" id="DejaVuSans-116"/>
       <path d="M 9.421875 54.6875 
L 18.40625 54.6875 
L 18.40625 0 
L 9.421875 0 
z
M 9.421875 75.984375 
L 18.40625 75.984375 
L 18.40625 64.59375 
L 9.421875 64.59375 
z
" id="DejaVuSans-105"/>
       <path d="M 52 44.1875 
Q 55.375 50.25 60.0625 53.125 
Q 64.75 56 71.09375 56 
Q 79.640625 56 84.28125 50.015625 
Q 88.921875 44.046875 88.921875 33.015625 
L 88.921875 0 
L 79.890625 0 
L 79.890625 32.71875 
Q 79.890625 40.578125 77.09375 44.375 
Q 74.3125 48.1875 68.609375 48.1875 
Q 61.625 48.1875 57.5625 43.546875 
Q 53.515625 38.921875 53.515625 30.90625 
L 53.515625 0 
L 44.484375 0 
L 44.484375 32.71875 
Q 44.484375 40.625 41.703125 44.40625 
Q 38.921875 48.1875 33.109375 48.1875 
Q 26.21875 48.1875 22.15625 43.53125 
Q 18.109375 38.875 18.109375 30.90625 
L 18.109375 0 
L 9.078125 0 
L 9.078125 54.6875 
L 18.109375 54.6875 
L 18.109375 46.1875 
Q 21.1875 51.21875 25.484375 53.609375 
Q 29.78125 56 35.6875 56 
Q 41.65625 56 45.828125 52.96875 
Q 50 49.953125 52 44.1875 
z
" id="DejaVuSans-109"/>
       <path d="M 8.59375 75.984375 
L 29.296875 75.984375 
L 29.296875 69 
L 17.578125 69 
L 17.578125 -6.203125 
L 29.296875 -6.203125 
L 29.296875 -13.1875 
L 8.59375 -13.1875 
z
" id="DejaVuSans-91"/>
       <path d="M 30.421875 75.984375 
L 30.421875 -13.1875 
L 9.71875 -13.1875 
L 9.71875 -6.203125 
L 21.390625 -6.203125 
L 21.390625 69 
L 9.71875 69 
L 9.71875 75.984375 
z
" id="DejaVuSans-93"/>
      </defs>
      <use xlink:href="#DejaVuSans-82"/>
      <use x="64.982422" xlink:href="#DejaVuSans-101"/>
      <use x="126.505859" xlink:href="#DejaVuSans-115"/>
      <use x="178.605469" xlink:href="#DejaVuSans-112"/>
      <use x="242.082031" xlink:href="#DejaVuSans-111"/>
      <use x="303.263672" xlink:href="#DejaVuSans-110"/>
      <use x="366.642578" xlink:href="#DejaVuSans-115"/>
      <use x="418.742188" xlink:href="#DejaVuSans-101"/>
      <use x="480.265625" xlink:href="#DejaVuSans-32"/>
      <use x="512.052734" xlink:href="#DejaVuSans-116"/>
      <use x="551.261719" xlink:href="#DejaVuSans-105"/>
      <use x="579.044922" xlink:href="#DejaVuSans-109"/>
      <use x="676.457031" xlink:href="#DejaVuSans-101"/>
      <use x="737.980469" xlink:href="#DejaVuSans-32"/>
      <use x="769.767578" xlink:href="#DejaVuSans-91"/>
      <use x="808.78125" xlink:href="#DejaVuSans-115"/>
      <use x="860.880859" xlink:href="#DejaVuSans-93"/>
     </g>
    </g>
   </g>
   <g id="line2d_16">
    <path clip-path="url(#p115c98b389)" d="M 73.832727 254.400732 
L 74.482686 234.11001 
L 74.807666 255.336911 
L 75.132645 250.676932 
L 75.457625 250.947247 
L 75.782604 253.110438 
L 76.107584 249.098204 
L 76.432563 260.218846 
L 76.757543 247.437275 
L 77.082523 257.472791 
L 77.407502 244.918637 
L 77.732482 251.934186 
L 78.057461 252.417929 
L 78.382441 244.657781 
L 78.70742 244.348963 
L 79.0324 229.897803 
L 79.357379 167.348456 
L 79.682359 257.924161 
L 80.007338 260.080823 
L 80.332318 244.863748 
L 80.657297 243.356828 
L 81.307256 233.599488 
L 81.957215 257.120941 
L 82.282195 255.875544 
L 82.607174 230.49399 
L 82.932154 252.632157 
L 83.257133 255.798406 
L 83.907093 241.714685 
L 84.232072 260.68567 
L 85.207011 236.054178 
L 85.53199 265.797818 
L 85.85697 253.16666 
L 86.181949 254.40313 
L 86.831908 261.592805 
L 87.156888 247.791523 
L 87.806847 227.908339 
L 88.781785 251.832534 
L 89.106765 235.548318 
L 89.431744 246.658968 
L 89.756724 249.634438 
L 90.081704 251.314552 
L 90.406683 253.74939 
L 90.731663 245.264359 
L 91.056642 255.280823 
L 91.381622 251.147086 
L 91.706601 199.440072 
L 92.031581 255.255777 
L 92.35656 252.9094 
L 92.68154 259.949329 
L 93.006519 219.380809 
L 93.331499 261.25228 
L 93.656478 239.281711 
L 93.981458 236.351805 
L 94.306437 230.394603 
L 94.631417 241.965416 
L 94.956396 248.422481 
L 95.281376 245.557589 
L 95.606355 249.691193 
L 95.931335 261.923606 
L 96.256314 262.03032 
L 96.581294 232.752837 
L 96.906274 240.460362 
L 97.231253 250.921801 
L 97.556233 247.469782 
L 97.881212 264.35085 
L 98.206192 262.707907 
L 98.531171 240.648876 
L 98.856151 236.861527 
L 99.18113 262.429332 
L 99.50611 249.161353 
L 99.831089 252.862238 
L 100.156069 235.332492 
L 100.481048 246.633656 
L 100.806028 262.149957 
L 101.455987 240.214693 
L 101.780966 240.066945 
L 102.105946 261.205118 
L 102.430925 231.424707 
L 102.755905 259.884182 
L 103.080885 223.524404 
L 103.405864 241.267445 
L 103.730844 235.524205 
L 104.055823 242.785555 
L 104.380803 255.888067 
L 104.705782 255.951483 
L 105.030762 263.279713 
L 105.355741 236.172616 
L 105.680721 234.525409 
L 106.0057 256.664509 
L 106.33068 249.086879 
L 106.655659 244.303399 
L 106.980639 231.942157 
L 107.305618 246.452068 
L 107.630598 244.595697 
L 108.280557 246.065979 
L 108.605536 259.955325 
L 108.930516 255.676105 
L 109.255495 131.318945 
L 109.580475 237.886435 
L 109.905455 235.783995 
L 110.230434 258.86407 
L 110.555414 239.773049 
L 110.880393 254.931105 
L 111.205373 237.36259 
L 111.530352 243.319925 
L 111.855332 182.996118 
L 112.180311 257.236714 
L 112.505291 244.03375 
L 112.83027 252.821604 
L 113.15525 239.837264 
L 113.480229 251.06382 
L 113.805209 245.487912 
L 114.130188 218.760775 
L 114.455168 249.91368 
L 114.780147 256.255372 
L 115.105127 256.812656 
L 115.430106 262.950645 
L 116.080066 236.408026 
L 116.405045 254.959216 
L 116.730025 260.510477 
L 117.055004 234.918826 
L 117.379984 256.509967 
L 117.704963 239.992205 
L 118.029943 243.407454 
L 118.354922 241.939703 
L 118.679902 242.90759 
L 119.004881 234.585361 
L 119.329861 262.728024 
L 119.65484 244.300735 
L 119.97982 244.440089 
L 120.304799 250.876904 
L 120.629779 243.091309 
L 120.954758 243.468072 
L 121.279738 240.251463 
L 121.604717 260.187005 
L 121.929697 260.128119 
L 122.254676 251.67213 
L 122.579656 248.150833 
L 122.904636 257.512759 
L 123.229615 248.738094 
L 123.554595 236.104537 
L 123.879574 253.053151 
L 124.204554 253.820666 
L 124.529533 249.147231 
L 124.854513 261.432135 
L 125.179492 253.914591 
L 125.504472 237.966904 
L 125.829451 254.964012 
L 126.154431 250.498276 
L 126.47941 241.05868 
L 126.80439 242.204956 
L 127.129369 257.104155 
L 127.454349 240.685114 
L 127.779328 262.610652 
L 128.104308 245.287673 
L 128.429287 256.879136 
L 128.754267 240.914263 
L 129.079247 246.597685 
L 129.404226 245.006966 
L 130.054185 263.2965 
L 130.379165 243.034555 
L 130.704144 252.546093 
L 131.029124 238.294373 
L 131.354103 258.483577 
L 131.679083 262.430264 
L 132.004062 241.185111 
L 132.329042 253.480274 
L 132.654021 241.259318 
L 132.979001 247.3235 
L 133.30398 247.443536 
L 133.62896 249.106597 
L 133.953939 260.103339 
L 134.278919 240.20963 
L 134.603898 99.298605 
L 134.928878 234.673157 
L 135.253857 251.289638 
L 135.578837 257.2543 
L 135.903817 259.519675 
L 136.228796 242.618623 
L 136.553776 256.125876 
L 136.878755 244.58757 
L 137.203735 254.484398 
L 137.528714 240.634222 
L 137.853694 253.540492 
L 138.178673 236.933203 
L 138.503653 264.042299 
L 138.828632 236.63038 
L 139.153612 230.875682 
L 139.478591 234.614404 
L 140.12855 255.199955 
L 140.45353 252.177723 
L 140.778509 248.062638 
L 141.103489 259.754953 
L 141.428468 234.574836 
L 142.078428 251.019456 
L 142.403407 253.481872 
L 142.728387 257.815182 
L 143.053366 248.810169 
L 143.378346 234.816774 
L 143.703325 244.636065 
L 144.028305 265.461955 
L 144.353284 246.486574 
L 144.678264 249.743817 
L 145.003243 261.272397 
L 145.328223 246.457797 
L 145.653202 247.246762 
L 145.978182 254.663587 
L 146.628141 237.049642 
L 146.95312 255.233395 
L 147.2781 257.517288 
L 147.603079 249.162419 
L 147.928059 248.867323 
L 148.253038 256.02116 
L 148.578018 253.635615 
L 148.902998 246.853612 
L 149.227977 245.341097 
L 149.552957 246.029875 
L 149.877936 256.851558 
L 150.202916 250.695983 
L 150.527895 261.348069 
L 150.852875 232.953076 
L 151.177854 241.919187 
L 151.502834 257.630264 
L 151.827813 240.653539 
L 152.152793 238.104126 
L 152.477772 258.808515 
L 152.802752 260.80131 
L 153.127731 256.289744 
L 153.452711 244.860284 
L 153.77769 262.675933 
L 154.10267 256.42337 
L 154.427649 247.258885 
L 154.752629 241.670187 
L 155.077609 230.276832 
L 155.402588 252.985739 
L 155.727568 254.32506 
L 156.052547 249.417546 
L 156.702506 251.564617 
L 157.027486 228.17266 
L 157.352465 233.917232 
L 157.677445 256.675966 
L 158.327404 261.210447 
L 158.652383 261.561098 
L 159.302342 227.370373 
L 159.627322 258.802919 
L 159.952301 224.664552 
L 160.277281 241.133286 
L 160.60226 240.892813 
L 160.92724 245.003902 
L 161.252219 256.798134 
L 161.577199 253.79562 
L 161.902179 257.009031 
L 162.227158 232.735251 
L 162.552138 242.762907 
L 162.877117 259.043925 
L 163.202097 258.449604 
L 163.527076 255.627344 
L 163.852056 240.546159 
L 164.177035 238.190457 
L 164.502015 234.083099 
L 164.826994 249.004812 
L 165.151974 249.941258 
L 165.476953 232.917638 
L 165.801933 255.394465 
L 166.126912 255.382741 
L 166.451892 250.04211 
L 166.776871 233.570179 
L 167.101851 249.090743 
L 167.42683 252.945105 
L 167.75181 245.7513 
L 168.07679 256.744178 
L 168.401769 251.982947 
L 168.726749 257.108285 
L 169.051728 247.176418 
L 169.376708 229.629353 
L 169.701687 236.918015 
L 170.026667 257.100557 
L 170.351646 234.235243 
L 170.676626 236.245757 
L 171.001605 242.165255 
L 171.326585 235.582691 
L 171.651564 261.152893 
L 171.976544 252.281906 
L 172.301523 261.656221 
L 172.951482 229.380087 
L 173.276462 242.377617 
L 173.601441 246.178955 
L 173.926421 255.217541 
L 174.2514 231.243386 
L 174.57638 250.078747 
L 174.90136 255.023164 
L 175.226339 249.168147 
L 175.551319 257.574043 
L 175.876298 238.264664 
L 176.201278 232.374209 
L 176.526257 234.820505 
L 176.851237 240.823003 
L 177.176216 229.62882 
L 177.501196 224.67108 
L 177.826175 253.469349 
L 178.151155 248.472175 
L 178.476134 260.036859 
L 178.801114 236.958649 
L 179.126093 232.267361 
L 179.451073 229.853439 
L 179.776052 254.466413 
L 180.426011 220.967131 
L 180.750991 252.330134 
L 181.075971 238.192189 
L 181.40095 229.336389 
L 181.72593 239.364178 
L 182.050909 253.043159 
L 182.375889 239.634627 
L 182.700868 213.137171 
L 183.025848 247.982835 
L 183.350827 259.95226 
L 183.675807 246.6607 
L 184.000786 239.567214 
L 184.325766 255.164251 
L 184.650745 227.678791 
L 185.300704 253.268045 
L 185.625684 233.400582 
L 185.950663 255.994782 
L 186.275643 244.926497 
L 186.600622 248.68427 
L 187.250581 235.400971 
L 187.575561 238.037647 
L 187.900541 248.207188 
L 188.22552 204.845451 
L 188.5505 251.770318 
L 188.875479 244.863615 
L 189.200459 257.582569 
L 189.525438 249.476699 
L 189.850418 222.385855 
L 190.825356 247.072768 
L 191.150336 261.67021 
L 191.475315 228.333997 
L 191.800295 234.497965 
L 192.125274 248.464048 
L 192.775233 234.965188 
L 193.100213 234.794925 
L 193.425192 242.874684 
L 193.750172 221.930222 
L 194.075152 240.164866 
L 194.400131 241.545887 
L 194.725111 247.38958 
L 195.05009 248.036259 
L 195.37507 220.024423 
L 195.700049 247.524271 
L 196.025029 237.105331 
L 196.350008 233.722856 
L 196.674988 249.196658 
L 196.999967 245.882794 
L 197.324947 226.119114 
L 197.649926 223.467117 
L 197.974906 247.429548 
L 198.299885 250.494279 
L 198.624865 236.94546 
L 198.949844 236.427344 
L 199.274824 257.09363 
L 199.599803 260.881379 
L 199.924783 247.200266 
L 200.249762 252.286835 
L 200.574742 234.046062 
L 200.899722 248.359199 
L 201.224701 235.646906 
L 201.549681 250.188259 
L 201.87466 237.520064 
L 202.19964 258.86074 
L 202.524619 245.88799 
L 202.849599 226.289244 
L 203.174578 261.458514 
L 203.499558 250.369446 
L 203.824537 234.409503 
L 204.149517 250.916073 
L 204.474496 251.391423 
L 204.799476 237.418146 
L 205.124455 254.253784 
L 205.449435 233.789602 
L 205.774414 258.895645 
L 206.099394 237.153026 
L 206.424373 242.208953 
L 206.749353 224.197329 
L 207.074333 255.140137 
L 207.399312 252.839856 
L 207.724292 235.662227 
L 208.049271 95.875896 
L 208.374251 209.268554 
L 208.69923 234.871797 
L 209.02421 238.814487 
L 209.999148 260.53659 
L 210.324128 254.612828 
L 210.649107 240.564411 
L 210.974087 256.769757 
L 211.299066 252.943373 
L 211.624046 261.088811 
L 211.949025 248.504815 
L 212.274005 258.66623 
L 212.598984 238.452779 
L 212.923964 244.229059 
L 213.248943 259.456526 
L 213.573923 236.849004 
L 213.898903 244.665374 
L 214.223882 255.762569 
L 214.548862 246.882122 
L 214.873841 256.056065 
L 215.198821 253.990529 
L 215.5238 236.089083 
L 215.84878 241.615964 
L 216.173759 231.862088 
L 216.498739 238.894956 
L 217.148698 262.202714 
L 217.473677 255.378611 
L 217.798657 239.680323 
L 218.123636 240.839123 
L 218.448616 247.89797 
L 218.773595 244.421571 
L 219.098575 243.680701 
L 219.423554 238.355391 
L 219.748534 244.351361 
L 220.073514 228.360642 
L 220.398493 225.595003 
L 220.723473 257.117344 
L 221.048452 250.068622 
L 221.698411 222.197739 
L 222.023391 240.566809 
L 222.34837 223.329228 
L 222.67335 244.221332 
L 222.998329 233.418967 
L 223.323309 259.532199 
L 223.648288 250.120713 
L 223.973268 218.831518 
L 224.298247 235.659829 
L 224.623227 234.117604 
L 224.948206 252.011057 
L 225.273186 245.899181 
L 225.598165 242.400532 
L 225.923145 258.866335 
L 226.248124 245.709067 
L 226.573104 245.828571 
L 226.898084 230.457619 
L 227.223063 250.805761 
L 227.548043 245.737311 
L 227.873022 237.852596 
L 228.198002 243.679502 
L 228.522981 244.15725 
L 228.847961 257.873668 
L 229.17294 239.109317 
L 229.49792 256.305997 
L 229.822899 247.33136 
L 230.147879 243.233328 
L 230.472858 246.747697 
L 230.797838 233.611878 
L 231.447797 235.959987 
L 231.772776 227.660273 
L 232.097756 213.976362 
L 232.422735 224.126453 
L 232.747715 240.165266 
L 233.072695 242.943295 
L 233.397674 254.766837 
L 233.722654 226.001475 
L 234.047633 251.042904 
L 234.697592 201.105796 
L 235.347551 229.93977 
L 235.672531 231.311864 
L 235.99751 246.492969 
L 236.32249 207.00571 
L 236.647469 244.769824 
L 236.972449 256.76696 
L 237.297428 222.976845 
L 237.947387 250.634699 
L 238.272367 261.098404 
L 238.597346 255.374881 
L 238.922326 237.214843 
L 239.247305 253.163462 
L 239.572285 235.143311 
L 239.897265 252.149479 
L 240.222244 250.27379 
L 240.547224 260.595742 
L 241.197183 246.464725 
L 241.522162 245.451674 
L 241.847142 227.040905 
L 242.172121 249.925137 
L 242.497101 246.774342 
L 242.82208 247.441138 
L 243.14706 244.010702 
L 243.472039 260.769335 
L 243.797019 234.860606 
L 244.121998 248.917149 
L 244.446978 237.794642 
L 244.771957 237.449987 
L 245.096937 241.472879 
L 245.421916 255.208748 
L 245.746896 232.458274 
L 246.071876 243.24785 
L 246.396855 160.364748 
L 246.721835 224.573959 
L 247.046814 234.824235 
L 247.371794 258.314113 
L 247.696773 225.711176 
L 248.021753 256.239251 
L 248.346732 229.855971 
L 248.671712 243.441827 
L 248.996691 244.723727 
L 249.321671 253.999455 
L 249.64665 256.370212 
L 249.97163 224.996818 
L 250.296609 253.89474 
L 250.621589 256.34863 
L 250.946568 238.738549 
L 251.271548 252.225818 
L 251.596527 258.373798 
L 251.921507 262.251075 
L 252.246486 236.07576 
L 252.571466 237.561364 
L 252.896446 247.150306 
L 253.221425 235.631318 
L 253.546405 240.037769 
L 254.196364 254.07193 
L 254.521343 255.844769 
L 254.846323 251.740608 
L 255.171302 243.329917 
L 255.496282 202.466833 
L 255.821261 237.969035 
L 256.146241 237.516999 
L 257.121179 257.793866 
L 257.446159 258.522079 
L 257.771138 245.408776 
L 258.096118 246.494967 
L 258.421097 235.527402 
L 258.746077 253.786694 
L 259.071057 246.039867 
L 259.396036 251.02212 
L 259.721016 260.413888 
L 260.370975 226.893557 
L 260.695954 229.173587 
L 261.020934 246.370534 
L 261.345913 227.13816 
L 261.670893 234.834094 
L 261.995872 232.717932 
L 262.320852 245.852551 
L 262.645831 241.089322 
L 262.970811 247.501223 
L 263.29579 251.468161 
L 263.62077 242.309272 
L 263.945749 236.288389 
L 264.270729 251.521718 
L 264.595708 228.075938 
L 264.920688 245.166437 
L 265.245667 230.691431 
L 265.570647 229.353575 
L 265.895627 237.259473 
L 266.220606 250.752604 
L 266.545586 237.311298 
L 266.870565 237.674339 
L 267.195545 258.758022 
L 267.520524 252.559682 
L 267.845504 256.128141 
L 268.170483 242.850703 
L 268.495463 224.696793 
L 268.820442 228.295627 
L 269.145422 216.779038 
L 269.470401 239.020588 
L 269.795381 251.379166 
L 270.12036 244.109555 
L 270.44534 224.141107 
L 270.770319 243.674306 
L 271.095299 250.061961 
L 271.420278 245.782341 
L 271.745258 238.946514 
L 272.070238 239.3374 
L 272.395217 250.58394 
L 272.720197 243.599833 
L 273.045176 204.99906 
L 273.370156 236.031396 
L 273.695135 231.731393 
L 274.020115 243.075322 
L 274.345094 232.017163 
L 274.670074 240.88029 
L 274.995053 236.280262 
L 275.320033 248.332953 
L 275.645012 244.294473 
L 275.969992 250.15735 
L 276.294971 244.377073 
L 276.619951 257.698742 
L 276.94493 241.249726 
L 277.26991 257.623736 
L 277.594889 220.033083 
L 277.919869 236.327557 
L 278.569828 255.236326 
L 278.894808 237.120519 
L 279.219787 225.936728 
L 279.544767 250.362918 
L 279.869746 249.500146 
L 280.194726 247.128457 
L 280.519705 238.860184 
L 280.844685 246.511754 
L 281.169664 229.224746 
L 281.494644 226.845862 
L 281.819623 243.066529 
L 282.144603 223.960186 
L 282.469582 240.759721 
L 282.794562 242.660323 
L 283.119541 253.152804 
L 283.444521 243.981126 
L 283.7695 242.204956 
L 284.09448 237.336478 
L 284.419459 230.348907 
L 284.744439 246.089827 
L 285.069419 254.839312 
L 285.394398 223.071835 
L 285.719378 235.800382 
L 286.044357 243.191895 
L 286.369337 233.900712 
L 286.694316 241.293291 
L 287.019296 229.043692 
L 287.344275 242.590379 
L 287.669255 230.904592 
L 287.994234 226.160148 
L 288.319214 224.879579 
L 288.644193 229.033833 
L 288.969173 253.213022 
L 289.294152 246.263953 
L 289.619132 248.494423 
L 289.944111 247.690005 
L 290.269091 257.44468 
L 290.59407 242.920646 
L 290.91905 220.724127 
L 291.244029 237.398695 
L 291.893989 245.911837 
L 292.218968 246.118071 
L 292.543948 243.343106 
L 292.868927 253.98187 
L 293.193907 228.525576 
L 293.518886 256.074317 
L 293.843866 239.163007 
L 294.168845 239.691914 
L 294.493825 252.072075 
L 294.818804 253.620827 
L 295.143784 236.676343 
L 295.468763 232.76989 
L 295.793743 248.41129 
L 296.118722 239.716561 
L 296.443702 244.975125 
L 296.768681 258.250964 
L 297.093661 260.280263 
L 297.41864 248.42821 
L 297.74362 252.535302 
L 298.0686 226.882899 
L 298.393579 242.890804 
L 298.718559 230.96188 
L 299.043538 256.24498 
L 299.368518 236.75428 
L 299.693497 251.054494 
L 300.018477 237.936262 
L 300.343456 249.20172 
L 300.668436 218.127152 
L 300.993415 254.703422 
L 301.318395 239.963562 
L 301.643374 259.713519 
L 301.968354 239.049365 
L 302.293333 148.607152 
L 302.618313 249.167614 
L 302.943292 246.910233 
L 303.268272 229.81467 
L 303.593251 236.580554 
L 303.918231 257.488911 
L 304.24321 249.497082 
L 304.56819 238.125709 
L 304.89317 237.029525 
L 305.218149 251.048499 
L 305.868108 236.570029 
L 306.193088 246.972316 
L 306.518067 230.606033 
L 306.843047 249.818157 
L 307.168026 246.753026 
L 307.493006 239.056559 
L 307.817985 238.354991 
L 308.142965 229.489732 
L 308.467944 257.045269 
L 309.117903 223.677214 
L 309.442883 247.215853 
L 309.767862 228.886751 
L 310.092842 238.46357 
L 310.417821 241.666324 
L 310.742801 231.698486 
L 311.067781 226.845063 
L 311.39276 230.577123 
L 312.042719 246.420227 
L 312.367699 240.364839 
L 312.692678 242.110899 
L 313.017658 232.454144 
L 313.342637 242.569729 
L 313.667617 225.50401 
L 313.992596 255.52849 
L 314.317576 258.55432 
L 314.642555 229.153203 
L 314.967535 248.878514 
L 315.292514 253.570068 
L 315.617494 224.061039 
L 315.942473 254.273102 
L 316.267453 226.961502 
L 316.592432 241.103977 
L 316.917412 249.216109 
L 317.242391 249.019733 
L 317.567371 209.664635 
L 317.892351 253.247528 
L 318.21733 238.819017 
L 318.54231 231.472801 
L 318.867289 255.152926 
L 319.192269 234.596685 
L 319.517248 239.81235 
L 319.842228 212.608397 
L 320.167207 251.546898 
L 320.492187 261.246684 
L 321.142146 207.977328 
L 321.467125 251.077543 
L 321.792105 251.392622 
L 322.117084 230.531027 
L 322.442064 248.708384 
L 322.767043 230.512508 
L 323.092023 238.437458 
L 323.417002 225.261938 
L 323.741982 217.825928 
L 324.066962 219.574253 
L 324.391941 245.25037 
L 324.716921 254.112698 
L 325.0419 225.660284 
L 325.36688 225.539314 
L 325.691859 252.972283 
L 326.016839 228.709427 
L 326.341818 253.482805 
L 326.991777 220.900118 
L 327.316757 220.992843 
L 327.641736 243.112758 
L 327.966716 235.084958 
L 328.291695 243.525892 
L 328.616675 237.16395 
L 328.941654 248.080757 
L 329.266634 226.7983 
L 329.591613 235.091353 
L 329.916593 255.151461 
L 330.241572 236.600005 
L 330.566552 254.845574 
L 330.891532 244.503505 
L 331.216511 243.447422 
L 331.541491 233.118809 
L 331.86647 245.884925 
L 332.19145 228.547025 
L 332.516429 251.532909 
L 332.841409 228.990401 
L 333.491368 262.633967 
L 333.816347 221.566648 
L 334.141327 262.053235 
L 334.466306 255.204352 
L 334.791286 212.500218 
L 335.116265 251.392222 
L 335.441245 249.44206 
L 335.766224 242.674178 
L 336.091204 226.808958 
L 336.416183 238.110521 
L 337.066143 229.050752 
L 337.391122 239.438252 
L 337.716102 239.251202 
L 338.041081 242.264242 
L 338.366061 231.27123 
L 338.69104 239.42373 
L 339.01602 257.485314 
L 339.340999 254.359299 
L 339.665979 261.786649 
L 340.315938 233.13786 
L 340.640917 254.465214 
L 340.965897 257.492775 
L 341.290876 226.135501 
L 341.615856 249.025462 
L 341.940835 253.072202 
L 342.265815 262.312892 
L 342.590794 264.028044 
L 342.915774 237.917343 
L 343.240753 247.149373 
L 343.565733 246.067045 
L 343.890713 234.308118 
L 344.215692 234.778938 
L 344.540672 244.35256 
L 344.865651 246.554919 
L 345.190631 237.954247 
L 345.51561 220.656314 
L 345.84059 250.729956 
L 346.165569 233.048199 
L 346.490549 253.077265 
L 346.815528 259.465053 
L 347.140508 249.091276 
L 347.465487 251.714096 
L 347.790467 250.60952 
L 348.115446 233.818778 
L 348.440426 224.565432 
L 349.090385 256.085109 
L 349.740344 227.421931 
L 350.065324 223.408498 
L 350.390303 243.047877 
L 350.715283 248.764739 
L 351.040262 256.484121 
L 351.365242 241.132887 
L 351.690221 251.477221 
L 352.015201 239.097726 
L 352.34018 246.69907 
L 352.66516 224.122456 
L 352.990139 249.709445 
L 353.315119 227.598589 
L 353.640098 252.361575 
L 353.965078 209.971588 
L 354.290057 255.212745 
L 354.615037 251.056226 
L 354.940016 253.098714 
L 355.264996 233.725787 
L 355.589975 233.084836 
L 355.914955 223.272207 
L 356.239934 247.080229 
L 356.564914 238.826877 
L 356.889894 244.751172 
L 357.214873 254.036359 
L 357.539853 252.684648 
L 357.864832 255.433767 
L 358.189812 250.014132 
L 358.514791 224.379049 
L 359.16475 246.034671 
L 359.48973 232.048071 
L 359.814709 239.783041 
L 360.139689 225.445923 
L 360.464668 233.759093 
L 360.789648 247.41889 
L 361.114627 249.947919 
L 361.439607 249.333747 
L 361.764586 250.74994 
L 362.089566 244.783146 
L 362.414545 253.601243 
L 362.739525 246.39265 
L 363.064505 232.946414 
L 363.389484 251.388359 
L 364.039443 239.965027 
L 364.364423 252.740869 
L 365.014382 240.550689 
L 365.339361 246.218657 
L 365.664341 233.834233 
L 365.98932 248.25888 
L 366.3143 231.580315 
L 366.964259 249.799239 
L 367.289238 234.044996 
L 367.614218 237.496349 
L 367.939197 255.602298 
L 368.264177 226.976823 
L 368.914136 228.488272 
L 369.239115 219.660983 
L 369.564095 253.827994 
L 369.889075 231.424041 
L 370.214054 52.154182 
L 370.539034 253.984934 
L 370.864013 221.421964 
L 371.188993 222.137655 
L 371.513972 237.883637 
L 372.163931 260.135979 
L 372.488911 236.673412 
L 372.81389 238.072152 
L 373.463849 254.775497 
L 373.788829 259.230975 
L 374.113808 227.424596 
L 374.438788 142.993408 
L 374.763767 246.308451 
L 375.413726 240.65314 
L 375.738706 241.773837 
L 376.063686 255.655322 
L 376.388665 235.958255 
L 376.713645 228.856509 
L 377.038624 227.581536 
L 377.363604 253.702495 
L 377.688583 225.450053 
L 378.013563 256.098032 
L 378.338542 241.102778 
L 378.663522 253.478275 
L 378.988501 237.649559 
L 379.313481 257.48598 
L 379.63846 253.482805 
L 379.96344 254.10084 
L 380.288419 229.462021 
L 380.613399 250.922601 
L 380.938378 235.55045 
L 381.263358 254.851303 
L 381.588337 236.307707 
L 381.913317 230.408725 
L 382.238296 243.957944 
L 382.888256 252.186782 
L 383.213235 258.308118 
L 383.538215 259.12919 
L 383.863194 246.428887 
L 384.188174 257.489311 
L 384.513153 252.4543 
L 384.838133 233.116278 
L 385.163112 180.979609 
L 385.488092 252.452701 
L 385.813071 254.594709 
L 386.46303 251.577939 
L 386.78801 231.296677 
L 387.112989 234.232712 
L 387.437969 254.556873 
L 387.762948 239.311953 
L 388.412907 260.329823 
L 388.737887 251.561153 
L 389.062867 256.449615 
L 389.387846 234.114274 
L 389.712826 254.927375 
L 390.037805 264.643282 
L 390.362785 253.02544 
L 390.687764 234.833294 
L 391.012744 258.423758 
L 391.337723 243.4333 
L 391.662703 258.923755 
L 391.987682 240.728546 
L 392.312662 238.357256 
L 392.637641 258.917894 
L 392.962621 259.682744 
L 393.2876 249.701185 
L 393.61258 246.769946 
L 393.937559 245.206272 
L 394.262539 230.931904 
L 394.587518 251.505997 
L 394.912498 243.160853 
L 395.237477 248.613261 
L 395.562457 226.166676 
L 395.887437 256.950678 
L 396.212416 236.613327 
L 396.537396 238.981953 
L 396.862375 237.13171 
L 397.187355 253.151072 
L 397.512334 254.252985 
L 397.837314 241.146609 
L 398.162293 245.434488 
L 398.487273 258.201404 
L 398.487273 258.201404 
" style="fill:none;stroke:#1f77b4;stroke-linecap:square;stroke-width:1.5;"/>
   </g>
   <g id="patch_3">
    <path d="M 57.6 276.48 
L 57.6 41.472 
" style="fill:none;stroke:#000000;stroke-linecap:square;stroke-linejoin:miter;stroke-width:0.8;"/>
   </g>
   <g id="patch_4">
    <path d="M 414.72 276.48 
L 414.72 41.472 
" style="fill:none;stroke:#000000;stroke-linecap:square;stroke-linejoin:miter;stroke-width:0.8;"/>
   </g>
   <g id="patch_5">
    <path d="M 57.6 276.48 
L 414.72 276.48 
" style="fill:none;stroke:#000000;stroke-linecap:square;stroke-linejoin:miter;stroke-width:0.8;"/>
   </g>
   <g id="patch_6">
    <path d="M 57.6 41.472 
L 414.72 41.472 
" style="fill:none;stroke:#000000;stroke-linecap:square;stroke-linejoin:miter;stroke-width:0.8;"/>
   </g>
   <g id="text_17">
    <!-- https://github.com/AllexVeldman/uptime -->
    <g transform="translate(114.774375 35.472)scale(0.12 -0.12)">
     <defs>
      <path d="M 54.890625 33.015625 
L 54.890625 0 
L 45.90625 0 
L 45.90625 32.71875 
Q 45.90625 40.484375 42.875 44.328125 
Q 39.84375 48.1875 33.796875 48.1875 
Q 26.515625 48.1875 22.3125 43.546875 
Q 18.109375 38.921875 18.109375 30.90625 
L 18.109375 0 
L 9.078125 0 
L 9.078125 75.984375 
L 18.109375 75.984375 
L 18.109375 46.1875 
Q 21.34375 51.125 25.703125 53.5625 
Q 30.078125 56 35.796875 56 
Q 45.21875 56 50.046875 50.171875 
Q 54.890625 44.34375 54.890625 33.015625 
z
" id="DejaVuSans-104"/>
      <path d="M 25.390625 72.90625 
L 33.6875 72.90625 
L 8.296875 -9.28125 
L 0 -9.28125 
z
" id="DejaVuSans-47"/>
      <path d="M 45.40625 27.984375 
Q 45.40625 37.75 41.375 43.109375 
Q 37.359375 48.484375 30.078125 48.484375 
Q 22.859375 48.484375 18.828125 43.109375 
Q 14.796875 37.75 14.796875 27.984375 
Q 14.796875 18.265625 18.828125 12.890625 
Q 22.859375 7.515625 30.078125 7.515625 
Q 37.359375 7.515625 41.375 12.890625 
Q 45.40625 18.265625 45.40625 27.984375 
z
M 54.390625 6.78125 
Q 54.390625 -7.171875 48.1875 -13.984375 
Q 42 -20.796875 29.203125 -20.796875 
Q 24.46875 -20.796875 20.265625 -20.09375 
Q 16.0625 -19.390625 12.109375 -17.921875 
L 12.109375 -9.1875 
Q 16.0625 -11.328125 19.921875 -12.34375 
Q 23.78125 -13.375 27.78125 -13.375 
Q 36.625 -13.375 41.015625 -8.765625 
Q 45.40625 -4.15625 45.40625 5.171875 
L 45.40625 9.625 
Q 42.625 4.78125 38.28125 2.390625 
Q 33.9375 0 27.875 0 
Q 17.828125 0 11.671875 7.65625 
Q 5.515625 15.328125 5.515625 27.984375 
Q 5.515625 40.671875 11.671875 48.328125 
Q 17.828125 56 27.875 56 
Q 33.9375 56 38.28125 53.609375 
Q 42.625 51.21875 45.40625 46.390625 
L 45.40625 54.6875 
L 54.390625 54.6875 
z
" id="DejaVuSans-103"/>
      <path d="M 8.5 21.578125 
L 8.5 54.6875 
L 17.484375 54.6875 
L 17.484375 21.921875 
Q 17.484375 14.15625 20.5 10.265625 
Q 23.53125 6.390625 29.59375 6.390625 
Q 36.859375 6.390625 41.078125 11.03125 
Q 45.3125 15.671875 45.3125 23.6875 
L 45.3125 54.6875 
L 54.296875 54.6875 
L 54.296875 0 
L 45.3125 0 
L 45.3125 8.40625 
Q 42.046875 3.421875 37.71875 1 
Q 33.40625 -1.421875 27.6875 -1.421875 
Q 18.265625 -1.421875 13.375 4.4375 
Q 8.5 10.296875 8.5 21.578125 
z
M 31.109375 56 
z
" id="DejaVuSans-117"/>
      <path d="M 48.6875 27.296875 
Q 48.6875 37.203125 44.609375 42.84375 
Q 40.53125 48.484375 33.40625 48.484375 
Q 26.265625 48.484375 22.1875 42.84375 
Q 18.109375 37.203125 18.109375 27.296875 
Q 18.109375 17.390625 22.1875 11.75 
Q 26.265625 6.109375 33.40625 6.109375 
Q 40.53125 6.109375 44.609375 11.75 
Q 48.6875 17.390625 48.6875 27.296875 
z
M 18.109375 46.390625 
Q 20.953125 51.265625 25.265625 53.625 
Q 29.59375 56 35.59375 56 
Q 45.5625 56 51.78125 48.09375 
Q 58.015625 40.1875 58.015625 27.296875 
Q 58.015625 14.40625 51.78125 6.484375 
Q 45.5625 -1.421875 35.59375 -1.421875 
Q 29.59375 -1.421875 25.265625 0.953125 
Q 20.953125 3.328125 18.109375 8.203125 
L 18.109375 0 
L 9.078125 0 
L 9.078125 75.984375 
L 18.109375 75.984375 
z
" id="DejaVuSans-98"/>
      <path d="M 48.78125 52.59375 
L 48.78125 44.1875 
Q 44.96875 46.296875 41.140625 47.34375 
Q 37.3125 48.390625 33.40625 48.390625 
Q 24.65625 48.390625 19.8125 42.84375 
Q 14.984375 37.3125 14.984375 27.296875 
Q 14.984375 17.28125 19.8125 11.734375 
Q 24.65625 6.203125 33.40625 6.203125 
Q 37.3125 6.203125 41.140625 7.25 
Q 44.96875 8.296875 48.78125 10.40625 
L 48.78125 2.09375 
Q 45.015625 0.34375 40.984375 -0.53125 
Q 36.96875 -1.421875 32.421875 -1.421875 
Q 20.0625 -1.421875 12.78125 6.34375 
Q 5.515625 14.109375 5.515625 27.296875 
Q 5.515625 40.671875 12.859375 48.328125 
Q 20.21875 56 33.015625 56 
Q 37.15625 56 41.109375 55.140625 
Q 45.0625 54.296875 48.78125 52.59375 
z
" id="DejaVuSans-99"/>
      <path d="M 34.1875 63.1875 
L 20.796875 26.90625 
L 47.609375 26.90625 
z
M 28.609375 72.90625 
L 39.796875 72.90625 
L 67.578125 0 
L 57.328125 0 
L 50.6875 18.703125 
L 17.828125 18.703125 
L 11.1875 0 
L 0.78125 0 
z
" id="DejaVuSans-65"/>
      <path d="M 9.421875 75.984375 
L 18.40625 75.984375 
L 18.40625 0 
L 9.421875 0 
z
" id="DejaVuSans-108"/>
      <path d="M 54.890625 54.6875 
L 35.109375 28.078125 
L 55.90625 0 
L 45.3125 0 
L 29.390625 21.484375 
L 13.484375 0 
L 2.875 0 
L 24.125 28.609375 
L 4.6875 54.6875 
L 15.28125 54.6875 
L 29.78125 35.203125 
L 44.28125 54.6875 
z
" id="DejaVuSans-120"/>
      <path d="M 28.609375 0 
L 0.78125 72.90625 
L 11.078125 72.90625 
L 34.1875 11.53125 
L 57.328125 72.90625 
L 67.578125 72.90625 
L 39.796875 0 
z
" id="DejaVuSans-86"/>
      <path d="M 45.40625 46.390625 
L 45.40625 75.984375 
L 54.390625 75.984375 
L 54.390625 0 
L 45.40625 0 
L 45.40625 8.203125 
Q 42.578125 3.328125 38.25 0.953125 
Q 33.9375 -1.421875 27.875 -1.421875 
Q 17.96875 -1.421875 11.734375 6.484375 
Q 5.515625 14.40625 5.515625 27.296875 
Q 5.515625 40.1875 11.734375 48.09375 
Q 17.96875 56 27.875 56 
Q 33.9375 56 38.25 53.625 
Q 42.578125 51.265625 45.40625 46.390625 
z
M 14.796875 27.296875 
Q 14.796875 17.390625 18.875 11.75 
Q 22.953125 6.109375 30.078125 6.109375 
Q 37.203125 6.109375 41.296875 11.75 
Q 45.40625 17.390625 45.40625 27.296875 
Q 45.40625 37.203125 41.296875 42.84375 
Q 37.203125 48.484375 30.078125 48.484375 
Q 22.953125 48.484375 18.875 42.84375 
Q 14.796875 37.203125 14.796875 27.296875 
z
" id="DejaVuSans-100"/>
      <path d="M 34.28125 27.484375 
Q 23.390625 27.484375 19.1875 25 
Q 14.984375 22.515625 14.984375 16.5 
Q 14.984375 11.71875 18.140625 8.90625 
Q 21.296875 6.109375 26.703125 6.109375 
Q 34.1875 6.109375 38.703125 11.40625 
Q 43.21875 16.703125 43.21875 25.484375 
L 43.21875 27.484375 
z
M 52.203125 31.203125 
L 52.203125 0 
L 43.21875 0 
L 43.21875 8.296875 
Q 40.140625 3.328125 35.546875 0.953125 
Q 30.953125 -1.421875 24.3125 -1.421875 
Q 15.921875 -1.421875 10.953125 3.296875 
Q 6 8.015625 6 15.921875 
Q 6 25.140625 12.171875 29.828125 
Q 18.359375 34.515625 30.609375 34.515625 
L 43.21875 34.515625 
L 43.21875 35.40625 
Q 43.21875 41.609375 39.140625 45 
Q 35.0625 48.390625 27.6875 48.390625 
Q 23 48.390625 18.546875 47.265625 
Q 14.109375 46.140625 10.015625 43.890625 
L 10.015625 52.203125 
Q 14.9375 54.109375 19.578125 55.046875 
Q 24.21875 56 28.609375 56 
Q 40.484375 56 46.34375 49.84375 
Q 52.203125 43.703125 52.203125 31.203125 
z
" id="DejaVuSans-97"/>
     </defs>
     <use xlink:href="#DejaVuSans-104"/>
     <use x="63.378906" xlink:href="#DejaVuSans-116"/>
     <use x="102.587891" xlink:href="#DejaVuSans-116"/>
     <use x="141.796875" xlink:href="#DejaVuSans-112"/>
     <use x="205.273438" xlink:href="#DejaVuSans-115"/>
     <use x="257.373047" xlink:href="#DejaVuSans-58"/>
     <use x="291.064453" xlink:href="#DejaVuSans-47"/>
     <use x="324.755859" xlink:href="#DejaVuSans-47"/>
     <use x="358.447266" xlink:href="#DejaVuSans-103"/>
     <use x="421.923828" xlink:href="#DejaVuSans-105"/>
     <use x="449.707031" xlink:href="#DejaVuSans-116"/>
     <use x="488.916016" xlink:href="#DejaVuSans-104"/>
     <use x="552.294922" xlink:href="#DejaVuSans-117"/>
     <use x="615.673828" xlink:href="#DejaVuSans-98"/>
     <use x="679.150391" xlink:href="#DejaVuSans-46"/>
     <use x="710.9375" xlink:href="#DejaVuSans-99"/>
     <use x="765.917969" xlink:href="#DejaVuSans-111"/>
     <use x="827.099609" xlink:href="#DejaVuSans-109"/>
     <use x="924.511719" xlink:href="#DejaVuSans-47"/>
     <use x="958.203125" xlink:href="#DejaVuSans-65"/>
     <use x="1026.611328" xlink:href="#DejaVuSans-108"/>
     <use x="1054.394531" xlink:href="#DejaVuSans-108"/>
     <use x="1082.177734" xlink:href="#DejaVuSans-101"/>
     <use x="1141.951172" xlink:href="#DejaVuSans-120"/>
     <use x="1201.130859" xlink:href="#DejaVuSans-86"/>
     <use x="1261.789062" xlink:href="#DejaVuSans-101"/>
     <use x="1323.3125" xlink:href="#DejaVuSans-108"/>
     <use x="1351.095703" xlink:href="#DejaVuSans-100"/>
     <use x="1414.572266" xlink:href="#DejaVuSans-109"/>
     <use x="1511.984375" xlink:href="#DejaVuSans-97"/>
     <use x="1573.263672" xlink:href="#DejaVuSans-110"/>
     <use x="1636.642578" xlink:href="#DejaVuSans-47"/>
     <use x="1670.333984" xlink:href="#DejaVuSans-117"/>
     <use x="1733.712891" xlink:href="#DejaVuSans-112"/>
     <use x="1797.189453" xlink:href="#DejaVuSans-116"/>
     <use x="1836.398438" xlink:href="#DejaVuSans-105"/>
     <use x="1864.181641" xlink:href="#DejaVuSans-109"/>
     <use x="1961.59375" xlink:href="#DejaVuSans-101"/>
    </g>
   </g>
  </g>
  <g id="axes_2">
   <g id="matplotlib.axis_3">
    <g id="ytick_9">
     <g id="line2d_17">
      <defs>
       <path d="M 0 0 
L 3.5 0 
" id="m6fbbed003f" style="stroke:#000000;stroke-width:0.8;"/>
      </defs>
      <g>
       <use style="stroke:#000000;stroke-width:0.8;" x="414.72" xlink:href="#m6fbbed003f" y="265.797818"/>
      </g>
     </g>
     <g id="text_18">
      <!-- 190.0 -->
      <g transform="translate(421.72 269.597037)scale(0.1 -0.1)">
       <use xlink:href="#DejaVuSans-49"/>
       <use x="63.623047" xlink:href="#DejaVuSans-57"/>
       <use x="127.246094" xlink:href="#DejaVuSans-48"/>
       <use x="190.869141" xlink:href="#DejaVuSans-46"/>
       <use x="222.65625" xlink:href="#DejaVuSans-48"/>
      </g>
     </g>
    </g>
    <g id="ytick_10">
     <g id="line2d_18">
      <g>
       <use style="stroke:#000000;stroke-width:0.8;" x="414.72" xlink:href="#m6fbbed003f" y="239.092364"/>
      </g>
     </g>
     <g id="text_19">
      <!-- 192.5 -->
      <g transform="translate(421.72 242.891582)scale(0.1 -0.1)">
       <use xlink:href="#DejaVuSans-49"/>
       <use x="63.623047" xlink:href="#DejaVuSans-57"/>
       <use x="127.246094" xlink:href="#DejaVuSans-50"/>
       <use x="190.869141" xlink:href="#DejaVuSans-46"/>
       <use x="222.65625" xlink:href="#DejaVuSans-53"/>
      </g>
     </g>
    </g>
    <g id="ytick_11">
     <g id="line2d_19">
      <g>
       <use style="stroke:#000000;stroke-width:0.8;" x="414.72" xlink:href="#m6fbbed003f" y="212.386909"/>
      </g>
     </g>
     <g id="text_20">
      <!-- 195.0 -->
      <g transform="translate(421.72 216.186128)scale(0.1 -0.1)">
       <use xlink:href="#DejaVuSans-49"/>
       <use x="63.623047" xlink:href="#DejaVuSans-57"/>
       <use x="127.246094" xlink:href="#DejaVuSans-53"/>
       <use x="190.869141" xlink:href="#DejaVuSans-46"/>
       <use x="222.65625" xlink:href="#DejaVuSans-48"/>
      </g>
     </g>
    </g>
    <g id="ytick_12">
     <g id="line2d_20">
      <g>
       <use style="stroke:#000000;stroke-width:0.8;" x="414.72" xlink:href="#m6fbbed003f" y="185.681455"/>
      </g>
     </g>
     <g id="text_21">
      <!-- 197.5 -->
      <g transform="translate(421.72 189.480673)scale(0.1 -0.1)">
       <use xlink:href="#DejaVuSans-49"/>
       <use x="63.623047" xlink:href="#DejaVuSans-57"/>
       <use x="127.246094" xlink:href="#DejaVuSans-55"/>
       <use x="190.869141" xlink:href="#DejaVuSans-46"/>
       <use x="222.65625" xlink:href="#DejaVuSans-53"/>
      </g>
     </g>
    </g>
    <g id="ytick_13">
     <g id="line2d_21">
      <g>
       <use style="stroke:#000000;stroke-width:0.8;" x="414.72" xlink:href="#m6fbbed003f" y="158.976"/>
      </g>
     </g>
     <g id="text_22">
      <!-- 200.0 -->
      <g transform="translate(421.72 162.775219)scale(0.1 -0.1)">
       <use xlink:href="#DejaVuSans-50"/>
       <use x="63.623047" xlink:href="#DejaVuSans-48"/>
       <use x="127.246094" xlink:href="#DejaVuSans-48"/>
       <use x="190.869141" xlink:href="#DejaVuSans-46"/>
       <use x="222.65625" xlink:href="#DejaVuSans-48"/>
      </g>
     </g>
    </g>
    <g id="ytick_14">
     <g id="line2d_22">
      <g>
       <use style="stroke:#000000;stroke-width:0.8;" x="414.72" xlink:href="#m6fbbed003f" y="132.270545"/>
      </g>
     </g>
     <g id="text_23">
      <!-- 202.5 -->
      <g transform="translate(421.72 136.069764)scale(0.1 -0.1)">
       <use xlink:href="#DejaVuSans-50"/>
       <use x="63.623047" xlink:href="#DejaVuSans-48"/>
       <use x="127.246094" xlink:href="#DejaVuSans-50"/>
       <use x="190.869141" xlink:href="#DejaVuSans-46"/>
       <use x="222.65625" xlink:href="#DejaVuSans-53"/>
      </g>
     </g>
    </g>
    <g id="ytick_15">
     <g id="line2d_23">
      <g>
       <use style="stroke:#000000;stroke-width:0.8;" x="414.72" xlink:href="#m6fbbed003f" y="105.565091"/>
      </g>
     </g>
     <g id="text_24">
      <!-- 205.0 -->
      <g transform="translate(421.72 109.36431)scale(0.1 -0.1)">
       <use xlink:href="#DejaVuSans-50"/>
       <use x="63.623047" xlink:href="#DejaVuSans-48"/>
       <use x="127.246094" xlink:href="#DejaVuSans-53"/>
       <use x="190.869141" xlink:href="#DejaVuSans-46"/>
       <use x="222.65625" xlink:href="#DejaVuSans-48"/>
      </g>
     </g>
    </g>
    <g id="ytick_16">
     <g id="line2d_24">
      <g>
       <use style="stroke:#000000;stroke-width:0.8;" x="414.72" xlink:href="#m6fbbed003f" y="78.859636"/>
      </g>
     </g>
     <g id="text_25">
      <!-- 207.5 -->
      <g transform="translate(421.72 82.658855)scale(0.1 -0.1)">
       <use xlink:href="#DejaVuSans-50"/>
       <use x="63.623047" xlink:href="#DejaVuSans-48"/>
       <use x="127.246094" xlink:href="#DejaVuSans-55"/>
       <use x="190.869141" xlink:href="#DejaVuSans-46"/>
       <use x="222.65625" xlink:href="#DejaVuSans-53"/>
      </g>
     </g>
    </g>
    <g id="ytick_17">
     <g id="line2d_25">
      <g>
       <use style="stroke:#000000;stroke-width:0.8;" x="414.72" xlink:href="#m6fbbed003f" y="52.154182"/>
      </g>
     </g>
     <g id="text_26">
      <!-- 210.0 -->
      <g transform="translate(421.72 55.953401)scale(0.1 -0.1)">
       <use xlink:href="#DejaVuSans-50"/>
       <use x="63.623047" xlink:href="#DejaVuSans-49"/>
       <use x="127.246094" xlink:href="#DejaVuSans-48"/>
       <use x="190.869141" xlink:href="#DejaVuSans-46"/>
       <use x="222.65625" xlink:href="#DejaVuSans-48"/>
      </g>
     </g>
    </g>
    <g id="text_27">
     <!-- Status code -->
     <g transform="translate(461.946563 188.556469)rotate(-90)scale(0.1 -0.1)">
      <defs>
       <path d="M 53.515625 70.515625 
L 53.515625 60.890625 
Q 47.90625 63.578125 42.921875 64.890625 
Q 37.9375 66.21875 33.296875 66.21875 
Q 25.25 66.21875 20.875 63.09375 
Q 16.5 59.96875 16.5 54.203125 
Q 16.5 49.359375 19.40625 46.890625 
Q 22.3125 44.4375 30.421875 42.921875 
L 36.375 41.703125 
Q 47.40625 39.59375 52.65625 34.296875 
Q 57.90625 29 57.90625 20.125 
Q 57.90625 9.515625 50.796875 4.046875 
Q 43.703125 -1.421875 29.984375 -1.421875 
Q 24.8125 -1.421875 18.96875 -0.25 
Q 13.140625 0.921875 6.890625 3.21875 
L 6.890625 13.375 
Q 12.890625 10.015625 18.65625 8.296875 
Q 24.421875 6.59375 29.984375 6.59375 
Q 38.421875 6.59375 43.015625 9.90625 
Q 47.609375 13.234375 47.609375 19.390625 
Q 47.609375 24.75 44.3125 27.78125 
Q 41.015625 30.8125 33.5 32.328125 
L 27.484375 33.5 
Q 16.453125 35.6875 11.515625 40.375 
Q 6.59375 45.0625 6.59375 53.421875 
Q 6.59375 63.09375 13.40625 68.65625 
Q 20.21875 74.21875 32.171875 74.21875 
Q 37.3125 74.21875 42.625 73.28125 
Q 47.953125 72.359375 53.515625 70.515625 
z
" id="DejaVuSans-83"/>
      </defs>
      <use xlink:href="#DejaVuSans-83"/>
      <use x="63.476562" xlink:href="#DejaVuSans-116"/>
      <use x="102.685547" xlink:href="#DejaVuSans-97"/>
      <use x="163.964844" xlink:href="#DejaVuSans-116"/>
      <use x="203.173828" xlink:href="#DejaVuSans-117"/>
      <use x="266.552734" xlink:href="#DejaVuSans-115"/>
      <use x="318.652344" xlink:href="#DejaVuSans-32"/>
      <use x="350.439453" xlink:href="#DejaVuSans-99"/>
      <use x="405.419922" xlink:href="#DejaVuSans-111"/>
      <use x="466.601562" xlink:href="#DejaVuSans-100"/>
      <use x="530.078125" xlink:href="#DejaVuSans-101"/>
     </g>
    </g>
   </g>
   <g id="line2d_26">
    <path clip-path="url(#p115c98b389)" d="M 73.832727 158.976 
L 398.487273 158.976 
L 398.487273 158.976 
" style="fill:none;stroke:#008000;stroke-linecap:square;stroke-width:1.5;"/>
   </g>
   <g id="patch_7">
    <path d="M 57.6 276.48 
L 57.6 41.472 
" style="fill:none;stroke:#000000;stroke-linecap:square;stroke-linejoin:miter;stroke-width:0.8;"/>
   </g>
   <g id="patch_8">
    <path d="M 414.72 276.48 
L 414.72 41.472 
" style="fill:none;stroke:#000000;stroke-linecap:square;stroke-linejoin:miter;stroke-width:0.8;"/>
   </g>
   <g id="patch_9">
    <path d="M 57.6 276.48 
L 414.72 276.48 
" style="fill:none;stroke:#000000;stroke-linecap:square;stroke-linejoin:miter;stroke-width:0.8;"/>
   </g>
   <g id="patch_10">
    <path d="M 57.6 41.472 
L 414.72 41.472 
" style="fill:none;stroke:#000000;stroke-linecap:square;stroke-linejoin:miter;stroke-width:0.8;"/>
   </g>
  </g>
 </g>
 <defs>
  <clipPath id="p115c98b389">
   <rect height="235.008" width="357.12" x="57.6" y="41.472"/>
  </clipPath>
 </defs>
</svg>
